<svg xmlns="http://www.w3.org/2000/svg" xmlns:xlink="http://www.w3.org/1999/xlink" width="45.073" height="51.854" viewBox="0 0 45.073 51.854">
  <defs>
    <clipPath id="clip-path">
      <path id="Path_1949" data-name="Path 1949" d="M0,0H45.073V-51.854H0Z" fill="#be9f57" stroke="#be9f57" stroke-width="1"/>
    </clipPath>
  </defs>
  <g id="Group_57" data-name="Group 57" transform="translate(0 51.854)">
    <g id="Group_7" data-name="Group 7" clip-path="url(#clip-path)">
      <g id="Group_5" data-name="Group 5" transform="translate(44.345 -2.377)">
        <path id="Path_1947" data-name="Path 1947" d="M0,0-3.832-36.488a1.5,1.5,0,0,0-1.492-1.344h-7.2v-1.642a9.293,9.293,0,0,0-9.282-9.283,9.293,9.293,0,0,0-9.283,9.283v1.642h-7.2a1.5,1.5,0,0,0-1.493,1.344L-43.617,0a1.5,1.5,0,0,0,.377,1.161,1.5,1.5,0,0,0,1.115.5H-1.493a1.5,1.5,0,0,0,1.115-.5A1.5,1.5,0,0,0,0,0M-28.09-39.474a6.289,6.289,0,0,1,6.282-6.282,6.289,6.289,0,0,1,6.281,6.282v1.642H-28.09ZM-40.459-1.344l3.517-33.487h5.851v3.306a1.5,1.5,0,0,0,1.5,1.5,1.5,1.5,0,0,0,1.5-1.5v-3.306h12.563v3.306a1.5,1.5,0,0,0,1.5,1.5,1.5,1.5,0,0,0,1.5-1.5v-3.306h5.851L-3.159-1.344Z" fill="#be9f57" stroke="#be9f57" stroke-width="1"/>
      </g>
      <g id="Group_6" data-name="Group 6" transform="translate(44.345 -2.377)">
        <path id="Path_1948" data-name="Path 1948" d="M0,0-3.832-36.488a1.5,1.5,0,0,0-1.492-1.344h-7.2v-1.642a9.293,9.293,0,0,0-9.282-9.283,9.293,9.293,0,0,0-9.283,9.283v1.642h-7.2a1.5,1.5,0,0,0-1.493,1.344L-43.617,0a1.5,1.5,0,0,0,.377,1.161,1.5,1.5,0,0,0,1.115.5H-1.493a1.5,1.5,0,0,0,1.115-.5A1.5,1.5,0,0,0,0,0ZM-28.09-39.474a6.289,6.289,0,0,1,6.282-6.282,6.289,6.289,0,0,1,6.281,6.282v1.642H-28.09ZM-40.459-1.344l3.517-33.487h5.851v3.306a1.5,1.5,0,0,0,1.5,1.5,1.5,1.5,0,0,0,1.5-1.5v-3.306h12.563v3.306a1.5,1.5,0,0,0,1.5,1.5,1.5,1.5,0,0,0,1.5-1.5v-3.306h5.851L-3.159-1.344Z" stroke-width="1.44"/>
      </g>
    </g>
  </g>
</svg>
