<?xml version="1.0" encoding="utf-8"?>
<!-- Generator: Adobe Illustrator 22.0.1, SVG Export Plug-In . SVG Version: 6.00 Build 0)  -->
<svg version="1.1" id="Layer_1" xmlns="http://www.w3.org/2000/svg" xmlns:xlink="http://www.w3.org/1999/xlink" x="0px" y="0px"
	 viewBox="0 0 256 256" style="enable-background:new 0 0 256 256;" xml:space="preserve">
<path d="M220.7,65.2H67.9c-12.8,0-23.1-10.4-23.1-23.1C44.8,29.4,55.2,19,67.9,19h152.8c5.2,0,9.5-4.3,9.5-9.5
	c0-5.2-4.3-9.5-9.5-9.5H67.9c-23.2,0-42,18.9-42,42v171.9c0,23.2,18.9,42,42,42h151.4c0.4,0.1,0.9,0.1,1.3,0.1
	c5.2,0,9.5-4.3,9.5-9.5V74.6C230.1,69.4,225.9,65.2,220.7,65.2z M44.8,213.9V77.1c6.6,4.4,14.6,7,23.1,7h143.3V237H67.9
	C55.1,237,44.8,226.6,44.8,213.9z M220.7,33.2H70.1c-5.2,0-9.5,4.3-9.5,9.5s4.3,9.5,9.5,9.5h150.6c5.2,0,9.5-4.3,9.5-9.5
	S225.9,33.2,220.7,33.2z"/>
</svg>
