<?xml version="1.0" encoding="utf-8"?>
<!-- Generator: Adobe Illustrator 22.0.1, SVG Export Plug-In . SVG Version: 6.00 Build 0)  -->
<svg version="1.1" id="Capa_1" xmlns="http://www.w3.org/2000/svg" xmlns:xlink="http://www.w3.org/1999/xlink" x="0px" y="0px"
	 viewBox="0 0 256 256" style="enable-background:new 0 0 256 256;" xml:space="preserve">
<g>
	<g>
		<path d="M250.9,68.4c-7.8-2.6-16.3-5-25.4-7.1V30.5c0-4.1-3.4-7.5-7.5-7.5c-53.8,0-87.6,27.3-90,28.5C125.6,50.3,91.8,23,38,23
			c-4.1,0-7.5,3.4-7.5,7.5v30.8c-9.1,2.2-17.6,4.5-25.4,7.1c-3.1,1-5.1,3.9-5.1,7.1v150c0,2.4,1.2,4.7,3.1,6.1
			c1.9,1.4,4.4,1.8,6.8,1c28.7-9.6,60-14.6,90.6-14.6c6.2,0,48.6,0,55.1,0c30.6,0,61.9,5.1,90.6,14.6c2.3,0.8,4.8,0.4,6.8-1
			c2-1.4,3.1-3.7,3.1-6.1v-150C256,72.3,253.9,69.4,250.9,68.4z M100.4,203c-29.1,0-57.8,4.1-85.4,12.3V81
			c4.9-1.5,10.1-2.9,15.5-4.3v103.8c0,4.1,3.4,7.5,7.5,7.5c22.1,0,43.7,5.1,63.3,15H100.4z M120.5,196.6
			c-22.7-14.1-48.4-22.1-75-23.4v-135c45,2.4,72.2,24.9,75,26.3V196.6z M165.5,48.1c4.9-2,9.9-3.7,15-5.1v29.3l-2.2-2.2
			c-2.9-2.9-7.7-2.9-10.6,0l-2.2,2.2V48.1z M135.5,64.5c2.9-1.9,7.4-5.2,15-9.3v35.3c0,3,1.8,5.8,4.6,6.9s6,0.5,8.2-1.6l9.7-9.7
			l9.7,9.7c2.1,2.1,5.4,2.8,8.2,1.6c2.8-1.2,4.6-3.9,4.6-6.9V39.8c5-0.8,10-1.3,15-1.6c0,4.6,0,129.5,0,135
			c-26.6,1.3-52.3,9.3-75,23.4L135.5,64.5L135.5,64.5z M241,215.3c-27.6-8.2-56.3-12.3-85.4-12.3h-0.9c19.6-9.9,41.2-15,63.3-15
			c4.1,0,7.5-3.4,7.5-7.5V76.7c5.4,1.3,10.6,2.8,15.5,4.3V215.3z"/>
	</g>
</g>
</svg>
