<?xml version="1.0" encoding="utf-8"?>
<!-- Generator: Adobe Illustrator 22.0.1, SVG Export Plug-In . SVG Version: 6.00 Build 0)  -->
<svg version="1.1" id="Capa_1" xmlns="http://www.w3.org/2000/svg" xmlns:xlink="http://www.w3.org/1999/xlink" x="0px" y="0px"
	 viewBox="0 0 256 256" style="enable-background:new 0 0 256 256;" xml:space="preserve">
<path d="M148.9,128L251.7,25.2c5.8-5.8,5.8-15.1,0-20.9c-5.8-5.8-15.1-5.8-20.9,0L128,107.1L25.2,4.3c-5.8-5.8-15.1-5.8-20.9,0
	c-5.8,5.8-5.8,15.1,0,20.9L107.1,128L4.3,230.8c-5.8,5.8-5.8,15.1,0,20.9c2.9,2.9,6.7,4.3,10.4,4.3s7.6-1.4,10.4-4.3L128,148.9
	l102.8,102.8c2.9,2.9,6.7,4.3,10.4,4.3c3.8,0,7.6-1.4,10.4-4.3c5.8-5.8,5.8-15.1,0-20.9L148.9,128z"/>
</svg>
