<svg xmlns="http://www.w3.org/2000/svg" xmlns:xlink="http://www.w3.org/1999/xlink" width="32.561" height="46.305" viewBox="0 0 32.561 46.305">
  <defs>
    <clipPath id="clip-path">
      <path id="Path_1956" data-name="Path 1956" d="M0,0H32.561V-46.305H0Z" fill="#be9f57"/>
    </clipPath>
  </defs>
  <g id="Group_60" data-name="Group 60" transform="translate(0 46.305)">
    <g id="Group_18" data-name="Group 18" clip-path="url(#clip-path)">
      <g id="Group_17" data-name="Group 17" transform="translate(32.487 -2.896)">
        <path id="Path_1955" data-name="Path 1955" d="M0,0-5.348-20.836a13.756,13.756,0,0,0,3.033-8.682A13.891,13.891,0,0,0-16.206-43.409,13.891,13.891,0,0,0-30.1-29.518,13.756,13.756,0,0,0-27-20.79L-32.412,0a2.315,2.315,0,0,0,1.66,2.822,2.314,2.314,0,0,0,1.766-.252l12.34-7.247L-3.5,2.593a2.111,2.111,0,0,0,1.181.3A2.315,2.315,0,0,0,.073.654,2.321,2.321,0,0,0,0,0M-16.206-38.779a9.261,9.261,0,0,1,9.261,9.261,9.261,9.261,0,0,1-9.261,9.26,9.261,9.261,0,0,1-9.261-9.26,9.261,9.261,0,0,1,9.261-9.261m.718,29.426a2.313,2.313,0,0,0-2.315,0L-26.485-4.26l3.334-13.2a13.754,13.754,0,0,0,13.7,0L-5.9-4.052Z" fill="#be9f57"/>
      </g>
    </g>
  </g>
</svg>
