<?xml version="1.0" encoding="utf-8"?>
<!-- Generator: Adobe Illustrator 22.0.1, SVG Export Plug-In . SVG Version: 6.00 Build 0)  -->
<svg version="1.1" id="Capa_1" xmlns="http://www.w3.org/2000/svg" xmlns:xlink="http://www.w3.org/1999/xlink" x="0px" y="0px"
	 viewBox="0 0 256 256" style="enable-background:new 0 0 256 256;" xml:space="preserve">
<path d="M93.2,221.8c-6.6,0-13-2.7-17.6-7.3L7.3,146.2c-9.7-9.7-9.7-25.5,0-35.2c4.7-4.7,11-7.3,17.6-7.3s12.9,2.6,17.6,7.3
	l40.7,40.7c2.7,2.7,6.2,4.1,10,4.1c3.8,0,7.3-1.5,10-4.1L213.5,41.5c4.7-4.7,11-7.3,17.6-7.3c6.6,0,12.9,2.6,17.6,7.3
	c4.7,4.7,7.3,11,7.3,17.6s-2.6,12.9-7.3,17.6L110.8,214.5C106.2,219.2,99.8,221.8,93.2,221.8z"/>
</svg>
