<?xml version="1.0" encoding="utf-8"?>
<!-- Generator: Adobe Illustrator 22.0.1, SVG Export Plug-In . SVG Version: 6.00 Build 0)  -->
<svg version="1.1" id="Layer_1" xmlns="http://www.w3.org/2000/svg" xmlns:xlink="http://www.w3.org/1999/xlink" x="0px" y="0px"
	 viewBox="0 0 256 256" style="enable-background:new 0 0 256 256;" xml:space="preserve">
<g>
	<path d="M228.6,147.2c-0.5-0.8-1.2-1.5-1.9-2.1v-24.6c4.5-2.5,7.3-7.3,7.3-12.4c0-7.8-6.4-14.2-14.2-14.2s-14.2,6.4-14.2,14.2
		c0,5.1,2.9,9.9,7.3,12.4v24.6c-0.7,0.6-1.4,1.3-1.9,2.1c-2.8,4.2-27.4,41.7-27.4,63.6c0,20,16.2,36.2,36.2,36.2
		s36.2-16.2,36.2-36.2C256,189,231.4,151.5,228.6,147.2z M219.8,210.3c-8.4,0-15.2-6.8-15.2-15.2c0-9.7,10.7-28.1,15.2-35.4
		c4.5,7.3,15.2,25.7,15.2,35.4C235,203.5,228.2,210.3,219.8,210.3z M219.8,224c8.8,0,17-4,22.4-10.8c-1.2,11.3-10.8,20.1-22.4,20.1
		c-11.6,0-21.2-8.8-22.4-20.1C202.8,220,211,224,219.8,224z M219.8,108.6c-0.3,0-0.5-0.2-0.5-0.5c0-0.3,0.2-0.5,0.5-0.5
		c0.3,0,0.5,0.2,0.5,0.5C220.3,108.4,220.1,108.6,219.8,108.6z"/>
	<path d="M43,145.1v-24.6c4.5-2.5,7.3-7.3,7.3-12.4c0-7.8-6.4-14.2-14.2-14.2c-7.8,0-14.2,6.4-14.2,14.2c0,5.1,2.9,9.9,7.3,12.4
		v24.6c-0.7,0.6-1.4,1.3-1.9,2.1C24.6,151.5,0,189,0,210.8c0,20,16.2,36.2,36.2,36.2s36.2-16.2,36.2-36.2
		c0-21.8-24.6-59.4-27.4-63.6C44.4,146.5,43.8,145.7,43,145.1z M36.2,210.3c-8.4,0-15.2-6.8-15.2-15.2c0-9.7,10.7-28.1,15.2-35.4
		c4.5,7.3,15.2,25.7,15.2,35.4C51.4,203.5,44.5,210.3,36.2,210.3z M36.2,224c8.8,0,17-4,22.4-10.8c-1.2,11.3-10.8,20.1-22.4,20.1
		s-21.2-8.8-22.4-20.1C19.2,220,27.3,224,36.2,224z M36.2,108.6c-0.3,0-0.5-0.2-0.5-0.5c0-0.3,0.2-0.5,0.5-0.5
		c0.3,0,0.5,0.2,0.5,0.5C36.7,108.4,36.5,108.6,36.2,108.6z"/>
	<path d="M173.4,63.1l41.4-41.4c2.9-2.9,2.9-7.6,0-10.6c-1.4-1.4-3.3-2.2-5.3-2.2c-2,0-3.9,0.8-5.3,2.2l-74.1,74.1L56,11.2
		C54.6,9.7,52.7,9,50.7,9s-3.9,0.8-5.3,2.2c-2.9,2.9-2.9,7.6,0,10.6l41.4,41.4c-9.2,2.1-15.9,10.3-15.9,19.8
		c0,11.3,9.2,20.4,20.4,20.4c9.5,0,17.7-6.7,19.8-15.9l9.4,9.4c-9.1,13.7-23.7,37.9-23.7,50.8c0,18.4,15,33.3,33.3,33.3
		c18.4,0,33.3-15,33.3-33.3c0-12.9-14.7-37.1-23.7-50.8l9.4-9.4c2.1,9.2,10.3,15.9,19.8,15.9c11.3,0,20.4-9.2,20.4-20.4
		C189.4,73.3,182.6,65.1,173.4,63.1z M85.8,82.9c0-3,2.5-5.5,5.5-5.5c3,0,5.5,2.5,5.5,5.5c0,3-2.5,5.5-5.5,5.5
		C88.3,88.4,85.8,85.9,85.8,82.9z M111.7,147.6c0-6.7,9.7-24.5,18.4-38.2c8.7,13.7,18.4,31.5,18.4,38.2c0,10.2-8.3,18.4-18.4,18.4
		C120,166,111.7,157.8,111.7,147.6z M163.5,82.9c0-3,2.5-5.5,5.5-5.5s5.5,2.5,5.5,5.5c0,3-2.5,5.5-5.5,5.5S163.5,85.9,163.5,82.9z"
		/>
</g>
</svg>
