<?xml version="1.0" encoding="utf-8"?>
<!-- Generator: Adobe Illustrator 22.0.1, SVG Export Plug-In . SVG Version: 6.00 Build 0)  -->
<svg version="1.1" id="Capa_1" xmlns="http://www.w3.org/2000/svg" xmlns:xlink="http://www.w3.org/1999/xlink" x="0px" y="0px"
	 viewBox="0 0 256 256" style="enable-background:new 0 0 256 256;" xml:space="preserve">
<path d="M239.8,124.8c0,0,0-0.1-0.1-0.1l-30-60c0,0,0-0.1-0.1-0.1c-1.3-2.6-4-4-6.6-4H53c-2.7,0-5.3,1.5-6.6,4c0,0,0,0.1-0.1,0.1
	l-30,60c0,0,0,0.1-0.1,0.1c-0.8,1.6-0.7,3.2-0.7,3.2c0,1.7,0.6,3.5,1.7,4.8c0,0,0,0,0.1,0.1c0,0,0,0,0,0c0,0,0,0.1,0.1,0.1
	l105,120.5c0,0,0,0,0,0c3,3.3,8.2,3.4,11.2,0c0,0,0,0,0,0l105-120.5c0,0,0-0.1,0.1-0.1c0,0,0,0,0,0c1.2-1.4,1.8-3.2,1.8-4.9
	C240.5,128,240.6,126.4,239.8,124.8z M190.9,75.5l-19.1,38.3L143,75.5H190.9z M158,120.5H98l30-40L158,120.5z M113,75.5l-28.7,38.3
	L65.1,75.5H113z M53,84.8l17.9,35.7H35.1L53,84.8z M39.5,135.5h38.3l28.7,76.9L39.5,135.5z M128,227.1l-34.2-91.6h68.4L128,227.1z
	 M149.5,212.4l28.7-76.9h38.3L149.5,212.4z M185.1,120.5L203,84.8l17.9,35.7H185.1z M128,0c-4.1,0-7.5,3.4-7.5,7.5V30
	c0,4.1,3.4,7.5,7.5,7.5c4.1,0,7.5-3.4,7.5-7.5V7.5C135.5,3.4,132.1,0,128,0z M103.3,32.2l-15-15c-2.9-2.9-7.7-2.9-10.6,0
	s-2.9,7.7,0,10.6l15,15c2.9,2.9,7.7,2.9,10.6,0C106.2,39.9,106.2,35.1,103.3,32.2z M178.3,17.2c-2.9-2.9-7.7-2.9-10.6,0l-15,15
	c-2.9,2.9-2.9,7.7,0,10.6c2.9,2.9,7.7,2.9,10.6,0l15-15C181.2,24.9,181.2,20.1,178.3,17.2z"/>
</svg>
