<?xml version="1.0" encoding="utf-8"?>
<!-- Generator: Adobe Illustrator 22.0.1, SVG Export Plug-In . SVG Version: 6.00 Build 0)  -->
<svg version="1.1" id="Capa_1" xmlns="http://www.w3.org/2000/svg" xmlns:xlink="http://www.w3.org/1999/xlink" x="0px" y="0px"
	 viewBox="0 0 256 256" style="enable-background:new 0 0 256 256;" xml:space="preserve">
<path d="M239,130.9c-0.9-1.8-0.9-3.9,0-5.7l9.5-19.4c5.5-11.3,1.1-24.7-9.9-30.6l-19.1-10.1c-1.8-0.9-3-2.6-3.4-4.6l-3.7-21.2
	c-1.9-11.1-11.5-19.1-22.7-19.1c-1.1,0-2.2,0.1-3.3,0.2l-21.4,3c-0.3,0-0.6,0.1-0.9,0.1c-1.7,0-3.3-0.6-4.5-1.8l-15.5-15
	C139.7,2.3,134,0,128,0c-6,0-11.7,2.3-16.1,6.5l-15.5,15c-1.2,1.2-2.8,1.8-4.5,1.8c-0.3,0-0.6,0-0.9-0.1l-21.4-3
	c-1.1-0.2-2.2-0.2-3.3-0.2c-11.2,0-20.8,8.1-22.7,19.1l-3.7,21.2c-0.3,2-1.6,3.7-3.4,4.6L17.5,75.2C6.4,81.1,2,94.5,7.5,105.8
	l9.5,19.4c0.9,1.8,0.9,3.9,0,5.7l-9.5,19.4c-5.5,11.3-1.1,24.7,9.9,30.6l19.1,10.1c1.8,0.9,3,2.6,3.4,4.6l3.7,21.2
	c1.9,11.1,11.5,19.1,22.7,19.1c1.1,0,2.2-0.1,3.3-0.2l21.4-3c0.3,0,0.6-0.1,0.9-0.1c1.7,0,3.3,0.7,4.5,1.8l15.5,15
	c4.4,4.2,10.1,6.5,16.1,6.5c6,0,11.7-2.3,16.1-6.5l15.5-15c1.2-1.2,2.8-1.8,4.5-1.8c0.3,0,0.6,0,0.9,0.1l21.4,3
	c1.1,0.2,2.2,0.2,3.3,0.2c0,0,0,0,0,0c11.2,0,20.8-8.1,22.7-19.1l3.7-21.2c0.3-2,1.6-3.7,3.4-4.6l19.1-10.1
	c11.1-5.9,15.5-19.3,9.9-30.6L239,130.9z M196,213.9c-0.5,3.1-3.2,5.4-6.4,5.4c-0.3,0-0.6,0-0.9-0.1l-21.4-3
	c-1.1-0.2-2.2-0.2-3.3-0.2c-6,0-11.7,2.3-16,6.5l-15.5,15c-1.2,1.2-2.8,1.8-4.5,1.8c-1.7,0-3.3-0.7-4.5-1.8l-15.5-15
	c-4.3-4.2-10-6.5-16-6.5c-1.1,0-2.2,0.1-3.3,0.2l-21.4,3c-0.3,0-0.6,0.1-0.9,0.1c-3.1,0-5.8-2.3-6.4-5.4l-3.7-21.2
	c-1.2-7.1-5.6-13.1-11.9-16.4l-19.1-10.1c-3.1-1.7-4.3-5.4-2.8-8.6l9.5-19.4c3.2-6.5,3.2-13.9,0-20.3l-9.5-19.4
	c-1.5-3.2-0.3-6.9,2.8-8.6l19.1-10.1c6.3-3.4,10.7-9.4,11.9-16.4L60,42.1c0.5-3.1,3.2-5.4,6.4-5.4c0.3,0,0.6,0,0.9,0.1l21.4,3
	c1.1,0.2,2.2,0.2,3.3,0.2c6,0,11.7-2.3,16-6.5l15.5-15c1.2-1.2,2.8-1.8,4.5-1.8s3.3,0.7,4.5,1.8l15.5,15c4.3,4.2,10,6.5,16,6.5
	c1.1,0,2.2-0.1,3.3-0.2l21.4-3c0.3,0,0.6-0.1,0.9-0.1c3.1,0,5.8,2.3,6.4,5.4l3.7,21.2c1.2,7.1,5.6,13.1,11.9,16.4l19.1,10.1
	c3.1,1.7,4.3,5.4,2.8,8.6l-9.5,19.4c-3.2,6.5-3.2,13.9,0,20.3l9.5,19.4c1.5,3.2,0.3,6.9-2.8,8.6l-19.1,10.1
	c-6.3,3.4-10.7,9.4-11.9,16.4L196,213.9z M182.2,85.5l-96.7,96.7c-1.6,1.6-3.7,2.4-5.9,2.4c-2.2,0-4.3-0.9-5.9-2.4
	c-1.6-1.6-2.4-3.7-2.4-5.9c0-2.2,0.9-4.3,2.4-5.9l96.7-96.7c1.6-1.6,3.7-2.4,5.9-2.4s4.3,0.9,5.9,2.4c1.6,1.6,2.4,3.7,2.4,5.9
	C184.7,81.9,183.8,84,182.2,85.5z M98.7,116.8c15.4,0,27.9-12.5,27.9-27.9s-12.5-27.9-27.9-27.9S70.8,73.6,70.8,88.9
	S83.3,116.8,98.7,116.8z M98.7,77.7c6.2,0,11.2,5,11.2,11.2c0,6.2-5,11.2-11.2,11.2c-6.2,0-11.2-5-11.2-11.2
	C87.5,82.7,92.5,77.7,98.7,77.7z M157.3,139.2c-15.4,0-27.9,12.5-27.9,27.9s12.5,27.9,27.9,27.9s27.9-12.5,27.9-27.9
	S172.7,139.2,157.3,139.2z M157.3,178.3c-6.2,0-11.2-5-11.2-11.2s5-11.2,11.2-11.2s11.2,5,11.2,11.2S163.5,178.3,157.3,178.3z"/>
</svg>
