<?xml version="1.0" encoding="utf-8"?>
<!-- Generator: Adobe Illustrator 22.0.1, SVG Export Plug-In . SVG Version: 6.00 Build 0)  -->
<svg version="1.1" id="Capa_1" xmlns="http://www.w3.org/2000/svg" xmlns:xlink="http://www.w3.org/1999/xlink" x="0px" y="0px"
	 viewBox="0 0 256 256" style="enable-background:new 0 0 256 256;" xml:space="preserve">
<path d="M239.2,16.7C228.5,5.9,214.2,0,198.9,0s-29.6,5.9-40.3,16.7L13.2,162c-1.3,1.3-2.1,3-2.4,4.7L0.1,246.5
	c-0.3,2.6,0.6,5.2,2.4,7c1.6,1.6,3.7,2.5,5.9,2.5c0.3,0,0.8,0,1.2-0.1l38-3.5c2.2-0.3,4.2-1.4,5.5-3.2c1.4-1.8,1.9-4,1.6-6.1
	c-0.5-4-4.1-7.2-8.2-7.2c-0.4,0-0.8,0-1.1,0.1L17.9,238l7.1-52.5l57.1,57.1c1.6,1.6,3.7,2.5,5.9,2.5c2.2,0,4.3-0.9,5.9-2.5
	L239.2,97.4C250,86.6,256,72.3,256,57C256,41.8,250,27.4,239.2,16.7z M30.8,168L162,36.7l23,23L53.9,191L30.8,168z M219.4,93.9
	L88.1,225.1l-22.5-22.5L196.8,71.4L219.4,93.9z M173.9,25.1c7.1-5.6,15.7-8.5,24.9-8.5c10.8,0,21,4.2,28.7,11.8
	c7.6,7.5,11.8,17.7,11.8,28.7c0.1,9.2-2.8,17.8-8.5,24.9L173.9,25.1z"/>
</svg>
