<svg id="5ca735df-0fdd-4e49-a9cf-cc9f3ced2ce1" data-name="Layer 1" xmlns="http://www.w3.org/2000/svg" viewBox="0 0 256 256"><title>engagement</title><path d="M87.2,40.8A91,91,0,0,0,73.4,73.3a91.74,91.74,0,0,0-46.2,25C-9,134.5-9.1,193.1,26.8,229.1s94.6,35.8,130.8-.4a92.09,92.09,0,0,0,25-46.1,91.74,91.74,0,0,0,46.2-25c36.2-36.2,36.3-94.8.4-130.8C197.5-4.8,148.1-8.4,112,16Zm24.4-3.2c29.8-28.3,76.7-27.9,105.7,1,29.4,29.4,29.2,77.5-.4,107.1a75.14,75.14,0,0,1-32.3,19.1,99.65,99.65,0,0,0-1.3-17.2,58.24,58.24,0,0,0,21.8-13.8c22.9-22.9,23.3-60.5.4-83.4s-60.4-22.6-83.4.4a58.73,58.73,0,0,0,0,83,41.8,41.8,0,0,1,12.2,28,78.06,78.06,0,0,1-24.1-16.2,75.43,75.43,0,0,1-1.4-105.3Zm13,39.5A41.32,41.32,0,0,1,134,62.8a42.28,42.28,0,0,1,59.7-.4c16.4,16.3,16.2,43.1-.4,59.7a42.32,42.32,0,0,1-14.3,9.4,91.82,91.82,0,0,0-21.2-33.1A94,94,0,0,0,124.6,77.1Zm6.8,101.7a41.32,41.32,0,0,1-9.4,14.3,42.28,42.28,0,0,1-59.7.4c-16.4-16.3-16.2-43.1.4-59.7A42.32,42.32,0,0,1,77,124.4a92.43,92.43,0,0,0,21.2,33.1A94,94,0,0,0,131.4,178.8ZM39.1,110.2A74.56,74.56,0,0,1,71.4,91.1a89.43,89.43,0,0,0,1.4,17.2A58.24,58.24,0,0,0,51,122.1c-23,22.9-23.3,60.4-.4,83.3S111,228,134,205a58.73,58.73,0,0,0,0-83,41.84,41.84,0,0,1-12.2-28.1,78.06,78.06,0,0,1,24.1,16.2,75.57,75.57,0,0,1,0,106.7c-29.6,29.6-77.7,29.8-107.1.4S9.5,139.8,39.1,110.2Z"/></svg>