<svg xmlns="http://www.w3.org/2000/svg" xmlns:xlink="http://www.w3.org/1999/xlink" width="30.145" height="30.145" viewBox="0 0 30.145 30.145">
  <g id="Group_62" data-name="Group 62" transform="translate(0 18.012)">
    <g id="Group_30" data-name="Group 30" transform="translate(0 -18.012)">
      <g id="Group_29" data-name="Group 29" transform="translate(0)">
        <path id="Path_1964" data-name="Path 1964" d="M11.461,0H-15.346a1.667,1.667,0,0,0-1.669,1.669V28.476a1.667,1.667,0,0,0,1.669,1.669H-.922V18.468H-4.848V13.914H-.922V10.559c0-3.886,2.393-6,5.868-6a31.457,31.457,0,0,1,3.493.176V8.793l-2.395.018c-1.9,0-2.256.884-2.256,2.2v2.9H8.281l-.587,4.554H3.788V30.145h7.673a1.668,1.668,0,0,0,1.669-1.669V1.669A1.668,1.668,0,0,0,11.461,0" transform="translate(17.015)"/>
      </g>
    </g>
  </g>
</svg>
