<svg id="defc9d77-db9b-45f8-8380-1469ec82e061" data-name="Capa 1" xmlns="http://www.w3.org/2000/svg" viewBox="0 0 256 256"><title>gift</title><path d="M232.8,66.2H204.1c10.2-6.4,16.9-17,16.9-28.9,0-19.5-17.9-35.4-39.9-35.4-18.7,0-40.8,32-53.1,52.7C115.7,33.9,93.5,1.8,74.9,1.8,52.9,1.8,35,17.7,35,37.2c0,11.9,6.7,22.5,16.9,28.9H23.2A23.37,23.37,0,0,0,0,89.4v36.7a23.31,23.31,0,0,0,12.9,20.8V231a23.22,23.22,0,0,0,23.2,23.2H221.6A23.22,23.22,0,0,0,244.8,231V146A23.19,23.19,0,0,0,256,126.2V89.4A23.22,23.22,0,0,0,232.8,66.2Zm-209.6,62a2.11,2.11,0,0,1-2.1-2.1V89.4a2.11,2.11,0,0,1,2.1-2.1h94.3v40.9ZM138.6,87.3h94.3a2.11,2.11,0,0,1,2.1,2.1v36.7a2.11,2.11,0,0,1-2.1,2.1H138.6ZM181.1,23c10.2,0,18.8,6.6,18.8,14.3s-8.6,14.3-18.8,14.3H155C165.7,36.1,176.7,23.9,181.1,23ZM74.6,23c4.6.9,15.7,13.2,26.4,28.6H74.9c-10.2,0-18.8-6.6-18.8-14.3S64.7,23,74.6,23ZM34.1,231V149.3h83.4V233H36.1A2,2,0,0,1,34.1,231Zm187.5,2h-83V149.3h85.1V231A2.09,2.09,0,0,1,221.6,233Z"/></svg>