<svg xmlns="http://www.w3.org/2000/svg" xmlns:xlink="http://www.w3.org/1999/xlink" width="46.839" height="46.839" viewBox="0 0 46.839 46.839">
  <defs>
    <clipPath id="clip-path">
      <path id="Path_1945" data-name="Path 1945" d="M0,0H46.839V-46.839H0Z" fill="#be9f57"/>
    </clipPath>
  </defs>
  <g id="Group_55" data-name="Group 55" transform="translate(0 46.839)">
    <g id="Group_2" data-name="Group 2" clip-path="url(#clip-path)">
      <g id="Group_1" data-name="Group 1" transform="translate(46.839 -6.359)">
        <path id="Path_1944" data-name="Path 1944" d="M0,0A3.6,3.6,0,0,0-1-2.462l-9.823-9.823a3.6,3.6,0,0,0-2.462-1,3.574,3.574,0,0,0-2.6,1.164l-6.927-6.928,3.41-3.409a1.29,1.29,0,0,0,.378-.92,1.289,1.289,0,0,0-.378-.92c.811.812,1.407,1.569,2.651,1.569a2.623,2.623,0,0,0,1.84-.757c.975-.92,2.273-1.894,2.273-3.356a2.624,2.624,0,0,0-.757-1.84l-11.04-11.04a2.624,2.624,0,0,0-1.84-.757c-1.462,0-2.436,1.3-3.356,2.273a2.623,2.623,0,0,0-.757,1.84c0,1.244.757,1.84,1.569,2.651a1.289,1.289,0,0,0-.92-.378,1.29,1.29,0,0,0-.92.378L-40.075-24.3a1.289,1.289,0,0,0-.378.92,1.29,1.29,0,0,0,.378.92c-.811-.812-1.407-1.569-2.651-1.569a2.623,2.623,0,0,0-1.84.757c-.974.92-2.273,1.894-2.273,3.355a2.627,2.627,0,0,0,.757,1.841l11.04,11.04a2.624,2.624,0,0,0,1.84.757c1.462,0,2.436-1.3,3.356-2.273a2.623,2.623,0,0,0,.757-1.84c0-1.244-.757-1.84-1.569-2.651a1.29,1.29,0,0,0,.92.378,1.289,1.289,0,0,0,.92-.378l3.409-3.41,6.928,6.927a3.574,3.574,0,0,0-1.164,2.6,3.4,3.4,0,0,0,1.028,2.435l9.823,9.85a3.484,3.484,0,0,0,2.435,1,3.6,3.6,0,0,0,2.462-1L-1,2.435A3.484,3.484,0,0,0,0,0" fill="#be9f57"/>
      </g>
    </g>
  </g>
</svg>
