<?xml version="1.0" encoding="utf-8"?>
<!-- Generator: Adobe Illustrator 22.0.1, SVG Export Plug-In . SVG Version: 6.00 Build 0)  -->
<svg version="1.1" id="Capa_1" xmlns="http://www.w3.org/2000/svg" xmlns:xlink="http://www.w3.org/1999/xlink" x="0px" y="0px"
	 viewBox="0 0 256 256" style="enable-background:new 0 0 256 256;" xml:space="preserve">
<path d="M226.7,157.7c-5.8,0-11.4,2.4-15.4,6.7l-20.6,22.1c-2.7-8.6-10.7-14.8-20.1-14.8h-32.4c-4.5,0-8.9-1.7-12.3-4.7
	c-18.3-16.1-45.9-16.3-64.4-0.4c-3.8-5.4-10.1-8.9-17.2-8.9h-29c-3.9,0-7,3.1-7,7V249c0,3.9,3.1,7,7,7h29c6.3,0,12-2.8,15.8-7.2
	l4.2,1.2c14.2,4,28.9,6,43.7,6h62.7c15.4,0,30.1-7.3,39.3-19.7l33.7-44.9c0,0,0,0,0,0c2.7-3.7,4.2-8,4.2-12.6
	C247.8,167.2,238.3,157.7,226.7,157.7z M51.3,234.9c0,3.9-3.1,7-7,7h-22v-70.2h22c3.9,0,7,3.1,7,7V234.9z M232.3,183
	C232.3,183,232.3,183,232.3,183l-33.7,44.9c-6.6,8.8-17.1,14-28.1,14h-62.7c-13.5,0-26.9-1.9-39.9-5.5l-2.7-0.8c0-0.2,0-0.5,0-0.7
	v-53l4.9-4.3c13.2-11.6,33.1-11.6,46.4,0c6,5.3,13.6,8.1,21.6,8.1h32.4c3.9,0,7,3.1,7,7c0,3.9-3.1,7-7,7h-49.9c-3.9,0-7,3.1-7,7
	c0,3.9,3.1,7,7,7h54.6c5.8,0,11.4-2.4,15.4-6.7l30.9-33.2c1.3-1.4,3.2-2.2,5.1-2.2c3.9,0,7,3.1,7,7
	C233.7,180.3,233.3,181.8,232.3,183z M173.4,51.6c-5.7-8.3-13.4-14.8-22.4-18.9l5.1-7.2l0.1-0.1c1.9-3.7,1-6.7,0-8.2l-5-12.3
	C150,1.9,147.1,0,143.9,0h-31.9c-3.2,0-6,1.9-7.3,4.8c-3.6,8.2-4.9,11.1-5.4,12.4c-1.4,2.3-1.3,5.5,0.4,8.1l5.2,7.4
	c-9,4.2-16.7,10.7-22.5,18.9c-6.4,9.3-9.8,20.2-9.8,31.6c0,14.8,5.8,28.7,16.3,39.2c10.5,10.5,24.3,16.3,39,16.3s28.5-5.8,39-16.3
	c10.5-10.5,16.3-24.5,16.3-39.2C183.2,71.8,179.9,61,173.4,51.6z M167.5,83.1c0,21.9-17.7,39.8-39.5,39.8
	c-21.8,0-39.5-17.8-39.5-39.8s17.7-39.8,39.5-39.8C149.8,43.3,167.5,61.2,167.5,83.1z M117,16.1h21.4l1.7,3.9l-5.5,8
	c-2.2-0.3-4.4-0.4-6.6-0.4c-2.3,0-4.6,0.2-7,0.5c-1.3-1.9-4-5.7-5.7-8.1L117,16.1z"/>
</svg>
