<?xml version="1.0" encoding="utf-8"?>
<!-- Generator: Adobe Illustrator 15.1.0, SVG Export Plug-In . SVG Version: 6.00 Build 0)  -->
<!DOCTYPE svg PUBLIC "-//W3C//DTD SVG 1.1//EN" "http://www.w3.org/Graphics/SVG/1.1/DTD/svg11.dtd">
<svg version="1.1" id="Capa_1" xmlns="http://www.w3.org/2000/svg" xmlns:xlink="http://www.w3.org/1999/xlink" x="0px" y="0px"
	 width="256px" height="256px" viewBox="0 0 256 256" enable-background="new 0 0 256 256" xml:space="preserve">
<g>
	<path d="M235.32,36.362c-13.404-13.405-31.152-20.732-50.092-20.732c-18.941,0-36.742,7.381-50.146,20.786l-7.001,7.001
		l-7.109-7.109c-13.404-13.404-31.26-20.84-50.2-20.84c-18.888,0-36.688,7.381-50.039,20.732C7.327,49.604-0.054,67.406,0,86.347
		c0,18.94,7.436,36.688,20.84,50.092l101.922,101.923c1.412,1.411,3.312,2.171,5.156,2.171c1.845,0,3.744-0.706,5.156-2.116
		l102.141-101.76C248.617,123.251,256,105.45,256,86.509C256.053,67.569,248.727,49.767,235.32,36.362z M224.9,126.291
		l-96.982,96.603l-96.768-96.766c-10.639-10.637-16.499-24.748-16.499-39.781s5.808-29.145,16.444-39.727
		C41.678,36.037,55.79,30.177,70.768,30.177c15.033,0,29.197,5.86,39.836,16.498L122.87,58.94c2.877,2.875,7.49,2.875,10.367,0
		l12.156-12.157c10.637-10.638,24.803-16.499,39.781-16.499c14.977,0,29.09,5.861,39.727,16.443
		c10.637,10.637,16.443,24.748,16.443,39.781C241.398,101.543,235.537,115.653,224.9,126.291z"/>
</g>
</svg>
