<?xml version="1.0" encoding="utf-8"?>
<!-- Generator: Adobe Illustrator 22.0.1, SVG Export Plug-In . SVG Version: 6.00 Build 0)  -->
<svg version="1.1" id="Capa_1" xmlns="http://www.w3.org/2000/svg" xmlns:xlink="http://www.w3.org/1999/xlink" x="0px" y="0px"
	 viewBox="0 0 256 256" style="enable-background:new 0 0 256 256;" xml:space="preserve">
<path d="M226.6,121.3c-6.4,0-11.7,5.2-11.7,11.7v99.8h-52.1v-60.5c0-6.4-5.2-11.7-11.7-11.7h-46.4c-6.4,0-11.7,5.2-11.7,11.7v33.4
	c0,6.4,5.2,11.7,11.7,11.7c6.4,0,11.7-5.2,11.7-11.7v-21.8h23.1v48.8H41.1V96.2l87-69.7l81.7,63.6c2.1,1.7,4.6,2.6,7.3,2.6
	c3.6,0,6.9-1.6,9.1-4.4c4-5,3.2-12.4-1.9-16.4l-89-69.4C133.2,0.9,130.6,0,128,0c-2.6,0-5.2,0.9-7.3,2.6l-98.6,79
	c-2.8,2.2-4.4,5.5-4.4,9.1v153.7c0,6.4,5.2,11.7,11.7,11.7h197.1c6.4,0,11.7-5.2,11.7-11.7V132.9C238.2,126.5,233,121.3,226.6,121.3
	z"/>
</svg>
