<svg xmlns="http://www.w3.org/2000/svg" xmlns:xlink="http://www.w3.org/1999/xlink" width="30.145" height="30.145" viewBox="0 0 30.145 30.145">
  <g id="Group_63" data-name="Group 63" transform="translate(0 18.012)">
    <g id="Group_33" data-name="Group 33" transform="translate(0 -18.012)">
      <g id="Group_32" data-name="Group 32" transform="translate(-0.001 0)">
        <path id="Path_1966" data-name="Path 1966" d="M10.759,10.253a1.189,1.189,0,0,1-1.2,1.2h-20.98a1.188,1.188,0,0,1-1.2-1.2V-2.465h2.766A8.616,8.616,0,0,0-10.24.106,9.229,9.229,0,0,0-.88,9.193,9.234,9.234,0,0,0,8.5.106a8.616,8.616,0,0,0-.392-2.571h2.649ZM5.186-.207A5.966,5.966,0,0,1-.88,5.66,5.962,5.962,0,0,1-6.925-.207,5.963,5.963,0,0,1-.88-6.076,5.968,5.968,0,0,1,5.186-.207m5.573-7.066A1.357,1.357,0,0,1,9.4-5.919H5.989A1.357,1.357,0,0,1,4.635-7.273v-3.238a1.358,1.358,0,0,1,1.354-1.354H9.4a1.358,1.358,0,0,1,1.354,1.354Zm3.414-4.082a3.886,3.886,0,0,0-3.866-3.866H-12.1a3.888,3.888,0,0,0-3.868,3.866V11.058A3.888,3.888,0,0,0-12.1,14.924H10.307a3.886,3.886,0,0,0,3.866-3.866Z" transform="translate(15.972 15.221)"/>
      </g>
    </g>
  </g>
</svg>
