<svg id="baseline-map-24px" xmlns="http://www.w3.org/2000/svg" width="19.802" height="19.802" viewBox="0 0 19.802 19.802">
  <path id="Path_1910" data-name="Path 1910" d="M17.439,3l-.132.025L12.9,4.733,7.951,3,3.3,4.568a.416.416,0,0,0-.3.4V17.439a.409.409,0,0,0,.413.413l.132-.025,4.406-1.708L12.9,17.852l4.653-1.568a.416.416,0,0,0,.3-.4V3.413A.409.409,0,0,0,17.439,3ZM12.9,16.2,7.951,14.46V4.65L12.9,6.391Z" transform="translate(-0.525 -0.525)" fill="#be9f57"/>
  <path id="Path_1911" data-name="Path 1911" d="M0,0H19.8V19.8H0Z" fill="none"/>
</svg>
