<svg id="5395e38a-4013-4491-85b1-8a24342f9835" data-name="Layer 1" xmlns="http://www.w3.org/2000/svg" viewBox="0 0 256 256"><title>medal</title><path d="M236.1,210.1l-35.5-62.3a13,13,0,0,0,4.8-11.1v-.1l-2.6-21.7,14.8-15.5c4.4-4.4,4.6-11.9.4-17v-.1l-14.9-16,3.1-21.9v-.1a12.78,12.78,0,0,0-9.9-13.6l-21.4-4.2-10.3-19A12,12,0,0,0,153.7.7a13.64,13.64,0,0,0-4.4.8H149l-20.2,9.4L109.6,1.5A12.32,12.32,0,0,0,103.9.1a14.87,14.87,0,0,0-3.6.5,12.32,12.32,0,0,0-7.2,5.9l-10.6,19L61.1,29.3A12.62,12.62,0,0,0,50.9,43.1l2.6,21.7L38.6,80.2c-4.4,4.4-4.6,11.9-.4,17v.1l14.9,16-3.1,22A12.74,12.74,0,0,0,55.5,147L19.8,210.2a7.47,7.47,0,0,0-.1,7.4l.1.1.1.1a7.5,7.5,0,0,0,6.3,3.6H64.4l17.4,30.3v.1a7.5,7.5,0,0,0,6.3,3.6,7.24,7.24,0,0,0,6.4-3.8l33.3-56.8,33.4,57.6v.1a7.5,7.5,0,0,0,6.3,3.6,7.24,7.24,0,0,0,6.4-3.8l17.4-30.9h38.2a7.23,7.23,0,0,0,6.3-3.6A6.78,6.78,0,0,0,236.1,210.1Zm-55.4.1-13.2,23.4-32.7-56.5a9.71,9.71,0,0,0-1.2-2.2l-2.6-4.7,16.1,7.9a12.82,12.82,0,0,0,5.6,1.3,12.12,12.12,0,0,0,10.8-6.2l10.6-19.1,12-2.2,31,54.5H187.2A7.29,7.29,0,0,0,180.7,210.2ZM68.1,64.5,65.6,43.9l20.6-3.6a12.71,12.71,0,0,0,8.7-6.2l10-18L123.1,25a11.9,11.9,0,0,0,11.2,0l18.6-8.5,9.9,18.6.1.1a12,12,0,0,0,8.5,5.9l20.1,4-2.9,20.4a12.25,12.25,0,0,0,3.1,10.3l14,15.1-14.2,14.6a11.74,11.74,0,0,0-3.4,10.3l2.4,20.4-20,3.3a12.71,12.71,0,0,0-8.7,6.2l-10,18-18.2-8.9a11.9,11.9,0,0,0-11.2,0l-18.6,8.7L93.8,145l-.1-.1A11.6,11.6,0,0,0,85,139l-20.4-3.8,2.9-20.4a12.35,12.35,0,0,0-3.1-10.3l-13.7-15,14-14.6A12.32,12.32,0,0,0,68.1,64.5Zm2,86.7,11.2,2,10.3,19a12,12,0,0,0,10.9,6.8,13.64,13.64,0,0,0,4.4-.8h.3l8.6-4,3.1,5.5L88.3,233,75,210.1V210a7.5,7.5,0,0,0-6.3-3.6h-30Zm57.7-9.2A52.1,52.1,0,1,0,75.7,89.9,52.2,52.2,0,0,0,127.8,142Zm0-14.9A37.2,37.2,0,1,1,165,89.9,37.26,37.26,0,0,1,127.8,127.1Z"/></svg>