<?xml version="1.0" encoding="utf-8"?>
<!-- Generator: Adobe Illustrator 22.0.1, SVG Export Plug-In . SVG Version: 6.00 Build 0)  -->
<svg version="1.1" id="Capa_1" xmlns="http://www.w3.org/2000/svg" xmlns:xlink="http://www.w3.org/1999/xlink" x="0px" y="0px"
	 viewBox="0 0 256 256" style="enable-background:new 0 0 256 256;" xml:space="preserve">
<style type="text/css">
	.st0{fill-rule:evenodd;clip-rule:evenodd;}
</style>
<path class="st0" d="M12,204h232c6.6,0,12,5.4,12,12s-5.4,12-12,12H12c-6.6,0-12-5.4-12-12S5.4,204,12,204z M12,116h232
	c6.6,0,12,5.4,12,12s-5.4,12-12,12H12c-6.6,0-12-5.4-12-12S5.4,116,12,116z M12,28h232c6.6,0,12,5.4,12,12s-5.4,12-12,12H12
	C5.4,52,0,46.6,0,40S5.4,28,12,28z"/>
</svg>
