<svg xmlns="http://www.w3.org/2000/svg" width="43.038" height="38.394" viewBox="0 0 43.038 38.394">
  <path id="Path_6377" data-name="Path 6377" d="M900.575,351.868l-12.042,6.858,2.916,6.8,4.212-2.268v26.892H903.6V351.868Zm-32.184,13.176a5.263,5.263,0,0,1,1.539-3.834,5.19,5.19,0,0,1,3.861-1.566,5.1,5.1,0,0,1,3.834,1.566,5.617,5.617,0,0,1,0,7.668,5.1,5.1,0,0,1-3.834,1.566,5.186,5.186,0,0,1-3.861-1.566,5.261,5.261,0,0,1-1.539-3.834m18.576-.108v-.054a13.451,13.451,0,0,0-1.674-6.669,12.277,12.277,0,0,0-4.671-4.725,14.481,14.481,0,0,0-13.77.027,12.328,12.328,0,0,0-4.644,4.725,13.236,13.236,0,0,0-1.647,6.534,13.085,13.085,0,0,0,1.647,6.507,12.178,12.178,0,0,0,4.644,4.671,13.633,13.633,0,0,0,6.939,1.728h.486l-6.534,12.474h8.64l3.24-6.534,2.592-5.076a9.612,9.612,0,0,1,.54-.972,72.892,72.892,0,0,0,3.051-6.723,17.285,17.285,0,0,0,1.161-5.913" transform="translate(-860.561 -351.76)" fill="#be9f57"/>
</svg>
