<svg xmlns="http://www.w3.org/2000/svg" xmlns:xlink="http://www.w3.org/1999/xlink" width="43.582" height="46.305" viewBox="0 0 43.582 46.305">
  <defs>
    <clipPath id="clip-path">
      <path id="Path_1960" data-name="Path 1960" d="M0,0H43.582V-46.305H0Z" fill="#be9f57"/>
    </clipPath>
  </defs>
  <g id="Group_61" data-name="Group 61" transform="translate(0 46.305)">
    <g id="Group_23" data-name="Group 23" clip-path="url(#clip-path)">
      <g id="Group_20" data-name="Group 20" transform="translate(10.894 -27.236)">
        <path id="Path_1957" data-name="Path 1957" d="M0,0A9.533,9.533,0,0,0,9.533-9.533,9.532,9.532,0,0,0,0-19.065,9.532,9.532,0,0,0-9.533-9.533,9.533,9.533,0,0,0,0,0M0-13.618A4.085,4.085,0,0,1,4.085-9.533,4.085,4.085,0,0,1,0-5.447,4.085,4.085,0,0,1-4.085-9.533,4.085,4.085,0,0,1,0-13.618" fill="#be9f57"/>
      </g>
      <g id="Group_21" data-name="Group 21" transform="translate(32.683 -19.065)">
        <path id="Path_1958" data-name="Path 1958" d="M0,0A9.533,9.533,0,0,0-9.533,9.533,9.533,9.533,0,0,0,0,19.065,9.533,9.533,0,0,0,9.533,9.533,9.533,9.533,0,0,0,0,0M0,13.618A4.085,4.085,0,0,1-4.085,9.533,4.085,4.085,0,0,1,0,5.447,4.085,4.085,0,0,1,4.085,9.533,4.085,4.085,0,0,1,0,13.618" fill="#be9f57"/>
      </g>
      <g id="Group_22" data-name="Group 22" transform="translate(42.87 -45.594)">
        <path id="Path_1959" data-name="Path 1959" d="M0,0A2.424,2.424,0,0,0-3.428,0s0,0,0,0l-38.73,38.73a2.482,2.482,0,0,0-.708,1.716,2.424,2.424,0,0,0,2.42,2.428,2.427,2.427,0,0,0,1.72-.712L0,3.432A2.424,2.424,0,0,0,0,0L0,0" fill="#be9f57"/>
      </g>
    </g>
  </g>
</svg>
