<?xml version="1.0" encoding="utf-8"?>
<!-- Generator: Adobe Illustrator 22.0.1, SVG Export Plug-In . SVG Version: 6.00 Build 0)  -->
<svg version="1.1" id="Capa_1" xmlns="http://www.w3.org/2000/svg" xmlns:xlink="http://www.w3.org/1999/xlink" x="0px" y="0px"
	 viewBox="0 0 256 256" style="enable-background:new 0 0 256 256;" xml:space="preserve">
<path d="M128,55c-26.2,0-47.5,21.3-47.5,47.5s21.3,47.5,47.5,47.5s47.5-21.3,47.5-47.5S154.2,55,128,55z M128,130.1
	c-15.2,0-27.5-12.3-27.5-27.5S112.8,75,128,75s27.5,12.3,27.5,27.5S143.2,130.1,128,130.1z M128,0C71.4,0,25.4,46,25.4,102.6v2.8
	c0,28.6,16.4,61.9,48.7,99.1c23.4,26.9,46.6,45.7,47.5,46.5l6.3,5.1l6.3-5.1c1-0.8,24.1-19.6,47.5-46.5
	c32.3-37.1,48.7-70.5,48.7-99.1v-2.8C230.6,46,184.6,0,128,0z M210.5,105.4c0,48.3-62.3,106.8-82.5,124.6
	c-20.3-17.8-82.5-76.3-82.5-124.6v-2.8C45.5,57,82.5,20,128,20s82.5,37,82.5,82.5L210.5,105.4L210.5,105.4z"/>
</svg>
