<?xml version="1.0" encoding="utf-8"?>
<!-- Generator: Adobe Illustrator 22.0.1, SVG Export Plug-In . SVG Version: 6.00 Build 0)  -->
<svg version="1.1" id="Capa_1" xmlns="http://www.w3.org/2000/svg" xmlns:xlink="http://www.w3.org/1999/xlink" x="0px" y="0px"
	 viewBox="0 0 256 256" style="enable-background:new 0 0 256 256;" xml:space="preserve">
<path d="M131.5,249.5c-21.5,0-42.7-5.7-61.4-16.4c-15.3-8.9-28.4-20.8-38.9-35.4l-2.7-3.7l-5.4,25.4c-1.1,5.4-5.9,9.3-11.4,9.3
	c-0.8,0-1.7-0.1-2.4-0.3c-6.4-1.4-10.4-7.6-9-13.9l11.2-53.1c0.7-3,2.5-5.6,5.1-7.4c1.4-1,3.3-1.6,5.3-1.8h1c0.8,0,1.7,0.1,2.4,0.3
	l53.1,11.4c3,0.7,5.6,2.5,7.4,5.1c1.7,2.7,2.3,5.8,1.6,8.8c-1.1,5.4-5.9,9.3-11.4,9.3c-0.8,0-1.7-0.1-2.4-0.3L48,181.3l3.2,4.3
	C70,211,100,226.2,131.5,226.2c27.7,0,51.3-7.5,68.1-21.7c17.7-15,27.1-36.8,27.1-63.1c0-6.4,5.2-11.7,11.7-11.7s11.7,5.2,11.7,11.7
	c0,32.6-11.7,60-33.7,79.4C194.9,239.6,165.6,249.5,131.5,249.5z M17.5,126.2c-6.4,0-11.7-5.2-11.7-11.7c0-32.5,11.7-60,33.8-79.4
	C61,16.4,90.3,6.5,124.4,6.5c21.5,0,42.7,5.7,61.4,16.4c15.3,8.8,28.7,21.1,38.9,35.4l2.7,3.8l5.4-25.5c1.1-5.4,5.9-9.3,11.4-9.3
	c0.9,0,1.6,0.1,2.4,0.3c3.1,0.6,5.8,2.4,7.5,5.1c1.7,2.6,2.3,5.7,1.6,8.8l-11.4,53.1c-0.7,3.2-2.5,5.8-5.1,7.3
	c-1.6,1-3.4,1.6-5.3,1.8h-1c-0.9,0-1.6-0.1-2.4-0.3L177.4,92c-3.2-0.7-5.8-2.5-7.3-5.1c-1.7-2.6-2.3-5.7-1.7-8.9
	c1.1-5.3,5.9-9.2,11.4-9.2c0.9,0,1.6,0.1,2.4,0.3l25.6,5.5l-3.2-4.3c-18.8-25.4-48.8-40.5-80.3-40.5c-27.7,0-51.3,7.5-68.1,21.7
	c-17.7,15-27.1,36.8-27.1,63.1C29.2,121,23.9,126.2,17.5,126.2z"/>
</svg>
