<?xml version="1.0" encoding="utf-8"?>
<!-- Generator: Adobe Illustrator 22.0.1, SVG Export Plug-In . SVG Version: 6.00 Build 0)  -->
<svg version="1.1" id="Capa_1" xmlns="http://www.w3.org/2000/svg" xmlns:xlink="http://www.w3.org/1999/xlink" x="0px" y="0px"
	 viewBox="0 0 256 256" style="enable-background:new 0 0 256 256;" xml:space="preserve">
<g>
	<path d="M93.2,256c-12.1,0-22-9.9-22-22v-49.3H53.5C24,184.8,0,160.7,0,131.2V53.5C0,24,24,0,53.5,0h25.9c4.5,0,8.2,3.7,8.2,8.2
		v160.1h160.1c4.5,0,8.2,3.7,8.2,8.2V234c0,12.1-9.9,22-22,22H93.2z M87.7,234c0,3,2.5,5.5,5.5,5.5H234c3,0,5.5-2.5,5.5-5.5v-49.3
		H87.7V234z M53.5,16.5c-20.4,0-37.1,16.6-37.1,37.1v77.7c0,20.4,16.6,37.1,37.1,37.1h17.7V16.5H53.5z"/>
	<path d="M211.4,170.9h-94.5l-25.2,0h-6.6V6.4c0-3.5-2.8-6.4-6.4-6.4H52.4C23.5,0,0,23.5,0,52.4v78.9c0,28.9,23.5,52.4,52.4,52.4h20
		v52c0,11.2,9.1,20.3,20.3,20.3h143c11.2,0,20.3-9.1,20.3-20.3v-58.4c0-3.5-2.8-6.4-6.4-6.4h-13L211.4,170.9z M12.7,131.3V52.4
		c0-21.9,17.8-39.7,39.7-39.7h20v158.2h-20C30.5,170.9,12.7,153.1,12.7,131.3z M243.3,235.7c0,4.2-3.4,7.6-7.6,7.6h-143
		c-4.2,0-7.6-3.4-7.6-7.6v-52h158.2V235.7z"/>
</g>
<path d="M217.9,181l-0.6-1c-11.2-18.9-31.8-30.6-53.7-30.6s-42.5,11.7-53.7,30.6l-0.6,1H89.9l1.3-2.8c13.1-28.1,41.5-46.2,72.4-46.2
	c30.9,0,59.3,18.1,72.4,46.2l1.3,2.8H217.9z"/>
<path d="M107.9,179.9c11.4-19.2,32.3-32.1,56.3-32.1c23.9,0,44.9,12.9,56.3,32.1h15.4c-12.6-27-40-45.8-71.7-45.8
	c-31.8,0-59.1,18.7-71.7,45.8H107.9z"/>
</svg>
