<?xml version="1.0" encoding="utf-8"?>
<!-- Generator: Adobe Illustrator 22.0.1, SVG Export Plug-In . SVG Version: 6.00 Build 0)  -->
<svg version="1.1" id="Capa_1" xmlns="http://www.w3.org/2000/svg" xmlns:xlink="http://www.w3.org/1999/xlink" x="0px" y="0px"
	 viewBox="0 0 256 256" style="enable-background:new 0 0 256 256;" xml:space="preserve">
<path d="M248.1,183.1H198c-1.6-10.7-6.2-20.5-13.5-28.4c-7-7.6-15.8-13-25.7-15.6l4.5-6.7c2.1-3.1,1.7-7.3-1-9.9l-5.7-5.7
	c-1.5-1.5-3.5-2.3-5.6-2.3h-11.4c-2.1,0-4.1,0.8-5.6,2.3l-5.7,5.7c-2.6,2.6-3.1,6.8-1,9.9l4.5,6.7c-9.9,2.6-18.7,7.9-25.7,15.6
	c-7.3,8-12,17.8-13.5,28.4H61L196.5,47.5c3.1-3.1,3.1-8.1,0-11.1l-29-29c-4.8-4.8-11.2-7.4-18-7.4c-6.8,0-13.2,2.6-18,7.4L7.4,131.6
	c-9.9,9.9-9.9,26,0,35.9l26.9,26.9V231c0,13.8,11.2,25,25,25H231c13.8,0,25-11.2,25-25v-40C256,186.6,252.5,183.1,248.1,183.1z
	 M18.6,156.4c-1.8-1.8-2.8-4.3-2.8-6.8c0-2.6,1-5,2.8-6.8L142.7,18.6c1.8-1.8,4.3-2.8,6.8-2.8c2.6,0,5,1,6.9,2.8L179.8,42L42,179.8
	L18.6,156.4z M108.3,183.1c1.7-8,5.9-15.2,12.1-20.7c6.9-6,15.7-9.4,24.8-9.4c9.1,0,17.9,3.3,24.8,9.4c6.2,5.4,10.4,12.7,12.1,20.7
	H108.3z M145.2,131l-0.6-0.8h1.1L145.2,131z M231,240.3H59.4c-5.1,0-9.3-4.2-9.3-9.3v-32.2h190.2V231
	C240.3,236.1,236.1,240.3,231,240.3z"/>
</svg>
