<?xml version="1.0" encoding="utf-8"?>
<!-- Generator: Adobe Illustrator 22.0.1, SVG Export Plug-In . SVG Version: 6.00 Build 0)  -->
<svg version="1.1" id="Layer_1" xmlns="http://www.w3.org/2000/svg" xmlns:xlink="http://www.w3.org/1999/xlink" x="0px" y="0px"
	 viewBox="0 0 256 256" style="enable-background:new 0 0 256 256;" xml:space="preserve">
<g>
	<path d="M88.4,127.4c22,0,39.9-13.7,39.9-30.5s-17.9-30.5-39.9-30.5S48.5,80,48.5,96.8S66.4,127.4,88.4,127.4z M88.4,113.4
		c-14,0-25.8-7.5-25.8-16.4c0-8.9,11.7-16.5,25.5-16.5l0.3,0c14,0,25.8,7.5,25.8,16.4C114.2,105.7,102.1,113.4,88.4,113.4z"/>
	<path d="M256,154.8c0.1-2-0.6-3.8-2-5.2c-1.3-1.3-3.1-2.1-4.9-2.1h-72.8V96.8c0-35.7-39.5-64.8-88.2-64.8l-0.3,0
		C39.4,32,0,61.1,0,96.8v62.3c0,32.5,32.9,60.1,76.5,64.2l0.1,0h0.9c3.6,0.3,7.2,0.6,10.7,0.6H249c3.9,0,7-3.1,7-7L256,154.8z
		 M221.8,210h-16.4v-11.9c0-3.9-3.1-7-7-7c-3.9,0-7,3.1-7,7V210h-16.4v-11.9c0-3.9-3.1-7-7-7s-7,3.1-7,7V210h-16.4v-23.7
		c0-3.9-3.1-7-7-7c-3.9,0-7,3.1-7,7V210h-15.5v-11.9c0-3.9-3.1-7-7-7c-3.9,0-7,3.1-7,7V210H84.6v-11.9c0-3.9-3.1-7-7-7
		c-3.9,0-7,3.1-7,7v10.3c-32.6-5.5-56-26-56-49.3V132c16.1,18.4,43.9,29.7,74.1,29.7H242v48.3h-6.2L221.8,210z M162.4,96.9
		c0,28-33.2,50.8-74.1,50.8c-40.8,0-74.1-22.8-74.1-50.8c0-28,33.2-50.8,74.1-50.8C129.2,46.1,162.4,68.9,162.4,96.9z M162.4,131.5
		v16.1H143C150.3,143.3,156.8,137.8,162.4,131.5z"/>
</g>
</svg>
