<?xml version="1.0" encoding="utf-8"?>
<!-- Generator: Adobe Illustrator 22.0.1, SVG Export Plug-In . SVG Version: 6.00 Build 0)  -->
<svg version="1.1" id="Capa_1" xmlns="http://www.w3.org/2000/svg" xmlns:xlink="http://www.w3.org/1999/xlink" x="0px" y="0px"
	 viewBox="0 0 256 256" style="enable-background:new 0 0 256 256;" xml:space="preserve">
<path d="M251.4,74.7c-0.9-2.1-2.9-3.7-5.2-4.1c-2.3-0.4-4.7,0.3-6.3,1.9l-26.2,26.1c-4,4-9.2,6.1-14.8,6.1c-5.6,0-10.9-2.2-14.8-6.1
	c-4-4-6.1-9.2-6.1-14.8c0-5.6,2.2-10.9,6.1-14.8l26.1-26.1c1.7-1.7,2.4-4,2-6.3c-0.4-2.3-2-4.2-4.1-5.2c-6.9-3-14.5-4.6-22.1-4.6
	c-14.1,0-27.1,5.3-36.8,14.9l-8.6,8.6c-14.9,14.9-19.4,36.9-11.7,56.2l-8.8,8.8l-9.1-9.1l3.7-3.7c2.8-2.8,2.8-7.3,0-10L78.9,56.8
	c2.3-9.6-0.5-19.7-7.6-26.9c-5.4-5.4-12.6-8.4-20.2-8.4c-7.6,0-14.8,3-20.2,8.4L8.4,52.4C3,57.8,0,65,0,72.6s3,14.8,8.4,20.2
	c5.4,5.4,12.6,8.4,20.2,8.4h0c2.3,0,4.5-0.3,6.6-0.8l35.7,35.7c1.3,1.3,3.1,2.1,5,2.1s3.7-0.7,5-2.1l3.7-3.7l9.1,9.1L58,177.4
	c-6.3,6.3-9.8,14.7-9.8,23.6c0,8.9,3.5,17.3,9.8,23.7c6.3,6.3,14.7,9.8,23.7,9.8c8.9,0,17.3-3.5,23.7-9.8l35.7-35.7l35.6,35.6
	c0.8,0.8,1.8,1.4,2.8,1.7l24.2,7.9c0.7,0.2,1.5,0.3,2.2,0.3c1.9,0,3.7-0.7,5-2.1c1.9-1.9,2.6-4.7,1.7-7.2l-7.9-24.2
	c-0.3-1.1-0.9-2-1.7-2.8l-35.6-35.6l8.8-8.8c6.1,2.4,12.6,3.6,19.2,3.6c14,0,27.2-5.5,37.1-15.4l8.6-8.6
	C256.1,118.4,260.3,94.8,251.4,74.7z M75.9,121.1L42.2,87.4c-1.4-1.4-3.2-2.1-5-2.1c-0.9,0-1.9,0.2-2.8,0.6
	c-1.8,0.8-3.8,1.2-5.7,1.2c-3.9,0-7.5-1.5-10.2-4.2c-2.7-2.7-4.2-6.4-4.2-10.2s1.5-7.5,4.2-10.2L40.9,40c2.7-2.7,6.4-4.2,10.2-4.2
	s7.5,1.5,10.2,4.2c4.2,4.2,5.4,10.5,3,16c-1.2,2.7-0.6,5.8,1.5,7.8l33.7,33.7L75.9,121.1z M94.6,122.5l6.3-6.3l9.1,9.1l-6.3,6.3
	L94.6,122.5z M191.7,207l3,9.3l-9.3-3l-34.4-34.4l6.3-6.3L191.7,207z M231,123.4l-8.6,8.6c-7.2,7.2-16.8,11.2-27.1,11.2
	c-6.1,0-12.2-1.4-17.6-4.2c-3-1.6-6.5-0.6-8.8,1.9l-73.6,73.7c-3.6,3.6-8.5,5.6-13.6,5.6c-5.1,0-10-2-13.6-5.6
	c-3.6-3.6-5.6-8.5-5.6-13.6c0-5.1,2-10,5.6-13.6l73.7-73.7c2.5-2.4,3.4-5.8,1.9-8.8c-7.7-14.9-4.9-32.8,7-44.6l8.6-8.6
	c7-7,16.5-10.8,26.8-10.8c1.9,0,3.8,0.1,5.7,0.4l-17.7,17.6c-6.6,6.6-10.3,15.5-10.3,24.9c0,9.4,3.7,18.2,10.3,24.9
	c6.6,6.6,15.5,10.3,24.9,10.3c9.4,0,18.2-3.7,24.8-10.3L241.4,91C243.1,102.9,239.4,115,231,123.4z M83.3,188.3
	c-3,0-5.7,1.1-7.8,3.2c-2.1,2.1-3.2,4.9-3.2,7.8s1.1,5.7,3.2,7.8c2.1,2.1,4.9,3.2,7.8,3.2c3,0,5.7-1.2,7.8-3.2
	c2.1-2.1,3.2-4.9,3.2-7.8c0-3-1.1-5.7-3.2-7.8C89,189.5,86.3,188.3,83.3,188.3z"/>
</svg>
