<svg id="45b5e049-fc28-4998-96ff-df693ba66b6e" data-name="Capa 1" xmlns="http://www.w3.org/2000/svg" viewBox="0 0 256 256"><title>settings</title><path d="M245.3,202.7H216.9a37.08,37.08,0,0,0-71.2,0H10.7a10.65,10.65,0,1,0,0,21.3H145.8a37.08,37.08,0,0,0,71.2,0h28.4a10.65,10.65,0,1,0-.1-21.3Zm-64,26.6a16,16,0,1,1,16-16A16,16,0,0,1,181.3,229.3ZM245.3,32H216.9a37.08,37.08,0,0,0-71.2,0H10.7a10.7,10.7,0,0,0,0,21.4H145.8a37.08,37.08,0,0,0,71.2,0h28.4a10.7,10.7,0,1,0-.1-21.4Zm-64,26.7a16,16,0,1,1,16-16A16,16,0,0,1,181.3,58.7Zm64,58.6h-135a37.08,37.08,0,0,0-71.2,0H10.7a10.7,10.7,0,1,0,0,21.4H39.1a37.08,37.08,0,0,0,71.2,0H245.4A10.71,10.71,0,0,0,256.1,128,10.86,10.86,0,0,0,245.3,117.3ZM74.7,144a16,16,0,1,1,16-16A16,16,0,0,1,74.7,144Z"/></svg>