<svg xmlns="http://www.w3.org/2000/svg" width="60.356" height="57.703" viewBox="0 0 60.356 57.703"><defs><style>.a{fill:#be9f57;}</style></defs><path class="a" d="M319.441,260.345a3.293,3.293,0,0,1-1.71-.48l-14.949-9.06-14.946,9.06a3.295,3.295,0,0,1-4.917-3.567l3.963-16.992-13.146-11.444a3.3,3.3,0,0,1,1.885-5.769l17.333-1.469,6.8-15.977a3.3,3.3,0,0,1,6.064,0l6.8,15.977,17.326,1.469a3.295,3.295,0,0,1,1.887,5.767l-13.142,11.446,3.964,17a3.3,3.3,0,0,1-3.21,4.043Zm-16.658-14.829a3.282,3.282,0,0,1,1.7.476l12.375,7.5-3.277-14.049a3.291,3.291,0,0,1,1.048-3.236l10.877-9.471-14.338-1.216a3.287,3.287,0,0,1-2.753-1.992l-5.635-13.235-5.631,13.233a3.288,3.288,0,0,1-2.753,1.994l-14.342,1.216,10.882,9.473a3.287,3.287,0,0,1,1.046,3.234l-3.276,14.048,12.364-7.5A3.3,3.3,0,0,1,302.783,245.516Zm15.133-5.54,0,0Z" transform="translate(-272.604 -202.642)"/></svg>