<?xml version="1.0" encoding="utf-8"?>
<!-- Generator: Adobe Illustrator 22.0.1, SVG Export Plug-In . SVG Version: 6.00 Build 0)  -->
<svg version="1.1" id="Capa_1" xmlns="http://www.w3.org/2000/svg" xmlns:xlink="http://www.w3.org/1999/xlink" x="0px" y="0px"
	 viewBox="0 0 256 256" style="enable-background:new 0 0 256 256;" xml:space="preserve">
<path d="M248.9,136.7l-4.4-6.2c-1.5-2-1.5-4.7,0-6.8l4.4-6.2c3.9-5.5,5.2-12.4,3.7-19c-1.6-6.6-5.8-12.2-11.8-15.3l-6.7-3.6
	c-2.2-1.2-3.4-3.6-3-6l1.2-7.5c1.1-6.6-0.7-13.4-4.9-18.7c-4.3-5.2-10.5-8.4-17.3-8.7l-7.6-0.3c-2.5-0.1-4.6-1.8-5.3-4.2l-2.1-7.3
	c-2.9-10-12.2-16.9-22.6-16.9c-3.2,0-6.4,0.6-9.3,1.9l-7,3c-0.7,0.3-1.4,0.4-2.2,0.4c-1.7,0-3.3-0.7-4.4-1.9l-5.1-5.6
	c-4.5-5-10.8-7.8-17.5-7.8c-6.8,0-13.3,2.9-17.8,8.1l-4.9,5.8c-1.1,1.2-2.7,2-4.4,2c-0.8,0-1.5-0.1-2.2-0.4l-7.1-2.9
	c-2.9-1.2-5.9-1.8-8.9-1.8c-10.6,0-19.9,7.1-22.7,17.3l-2,7.3c-0.6,2.3-2.8,4.1-5.2,4.2l-7.5,0.5c-6.7,0.4-13,3.7-17.1,8.9
	c-4.1,5.3-5.8,12.1-4.6,18.7l1.4,7.5c0.5,2.4-0.7,4.9-2.9,6.1L14.7,85c-5.9,3.3-10.1,8.9-11.5,15.5c-1.4,6.6,0,13.5,4,18.9l4.5,6.1
	c1.5,2,1.5,4.7,0,6.8l-4.4,6.2c-3.9,5.5-5.2,12.4-3.7,19c1.5,6.5,5.8,12.1,11.8,15.3l6.7,3.6c2.2,1.2,3.4,3.6,3,6l-1.3,7.5
	c-1.1,6.6,0.7,13.4,4.9,18.7c4.3,5.2,10.5,8.4,17.2,8.7l7.6,0.3c2.5,0.1,4.6,1.8,5.3,4.2l2.1,7.3C63.7,239,73,246,83.4,246
	c3.2,0,6.4-0.6,9.3-1.9l7-3c0.7-0.3,1.4-0.4,2.2-0.4c1.7,0,3.3,0.7,4.4,1.9l5.1,5.6c4.4,4.9,10.8,7.8,17.5,7.8
	c6.8,0,13.3-2.9,17.8-8.1l4.9-5.8c1.1-1.2,2.7-2,4.4-2c0.8,0,1.5,0.1,2.2,0.4l7.1,2.9c2.9,1.2,5.9,1.8,8.9,1.8
	c10.6,0,19.9-7.1,22.7-17.3l2-7.3c0.6-2.3,2.8-4.1,5.2-4.2l7.6-0.4c6.7-0.4,13-3.7,17.1-8.9c4.1-5.3,5.8-12.1,4.6-18.7l-1.4-7.5
	c-0.5-2.4,0.7-4.9,2.9-6.1l6.6-3.7c5.9-3.3,10.1-8.9,11.5-15.5C254.3,149,252.9,142.1,248.9,136.7z M214.5,184l1.4,7.5
	c0.3,1.6-0.1,3.3-1.1,4.6c-1,1.3-2.5,2.1-4.2,2.2l-7.6,0.4c-10,0.6-18.6,7.5-21.3,17.2l-2,7.3c-0.7,2.5-3,4.3-5.6,4.3
	c-0.8,0-1.5-0.1-2.2-0.4l-7.1-2.9c-2.9-1.2-5.9-1.8-8.9-1.8c-6.8,0-13.3,2.9-17.7,8.1l-5,5.7c-1.1,1.3-2.7,2-4.4,2
	c-1.7,0-3.2-0.7-4.3-1.9l-5.1-5.6c-4.5-5-10.8-7.8-17.5-7.8c-3.2,0-6.4,0.6-9.3,1.9l-7,3c-0.7,0.3-1.5,0.5-2.3,0.5
	c-2.6,0-4.8-1.7-5.5-4.2l-2.1-7.3c-2.8-9.7-11.5-16.5-21.6-16.9l-7.6-0.3c-1.7-0.1-3.2-0.8-4.2-2.1c-1.1-1.3-1.5-2.9-1.2-4.6
	l1.3-7.5c1.7-10-3.2-19.8-12.1-24.6l-6.7-3.6c-1.5-0.8-2.5-2.1-2.8-3.7l0-0.1c-0.4-1.6-0.1-3.3,0.9-4.7l4.4-6.2
	c5.8-8.3,5.7-19.3-0.2-27.4l-4.5-6.1c-1-1.4-1.3-3-1-4.6l0-0.1c0.4-1.6,1.4-3,2.9-3.8l6.6-3.7c8.8-4.9,13.5-14.9,11.7-24.8l-1.3-7.4
	c-0.3-1.6,0.1-3.3,1.1-4.6c1-1.3,2.5-2.1,4.2-2.2l7.5-0.5c10-0.6,18.6-7.5,21.3-17.2l2-7.3c0.7-2.5,3-4.3,5.6-4.3
	c0.8,0,1.5,0.1,2.2,0.4l7.1,2.9c2.9,1.2,5.9,1.8,8.9,1.8c6.8,0,13.3-2.9,17.7-8.1l5-5.7c1.1-1.3,2.7-2,4.4-2c1.7,0,3.2,0.7,4.3,1.9
	l5.1,5.6c4.5,5,10.8,7.8,17.5,7.8c3.2,0,6.4-0.6,9.3-1.9l7-3c0.7-0.3,1.5-0.5,2.3-0.5c2.6,0,4.8,1.7,5.5,4.2l2.1,7.3
	c2.8,9.7,11.5,16.5,21.6,16.9l7.6,0.3c1.7,0.1,3.2,0.8,4.2,2.1c1.1,1.3,1.5,2.9,1.2,4.6l-1.2,7.5c-1.7,10,3.2,19.8,12.1,24.6
	l6.7,3.6c1.5,0.8,2.5,2.1,2.9,3.8c0.4,1.6,0.1,3.3-0.9,4.7l-4.4,6.2c-5.8,8.3-5.7,19.3,0.2,27.4l4.4,6c0.6,1,1.3,2.7,0.9,4.7
	c-0.4,1.6-1.4,3-2.8,3.8l-6.6,3.7C217.3,164.1,212.6,174.1,214.5,184z M150.2,83.5c-8,0-15.8,2.5-22.2,7.1
	c-6.5-4.7-14.2-7.2-22.3-7.2c-10.1,0-19.6,3.9-26.9,11.1c-7.2,7.1-11.1,16.7-11.1,26.9c0,10.1,4,19.7,11.2,26.9l39.7,39.7
	c2.5,2.5,5.8,3.9,9.4,3.9c3.6,0,6.9-1.4,9.4-3.9l39.6-39.6c7.2-7.2,11.1-16.7,11.2-26.9c0-10.1-3.9-19.7-11.1-26.9
	C169.9,87.5,160.4,83.5,150.2,83.5z M91.4,107.2c3.8-3.8,8.9-5.9,14.3-5.9c5.4,0,10.5,2.1,14.4,6l1.6,1.6c1.6,1.6,3.9,2.5,6.3,2.5
	c2.4,0,4.7-0.9,6.3-2.5l1.6-1.6c3.9-3.9,9-6,14.4-6c5.4,0,10.5,2.1,14.4,5.9c3.8,3.8,5.9,8.9,5.9,14.4c0,5.4-2.1,10.5-5.9,14.3
	L128,172.5l-36.6-36.6c-3.9-3.9-6-9-6-14.4C85.4,116.1,87.5,111,91.4,107.2z"/>
</svg>
