<svg xmlns="http://www.w3.org/2000/svg" xmlns:xlink="http://www.w3.org/1999/xlink" width="51.387" height="46.305" viewBox="0 0 51.387 46.305">
  <g id="Group_58" data-name="Group 58" transform="translate(0 46.305)">
      <g id="Group_12" data-name="Group 12" transform="translate(50.359 -25.188)">
        <path id="Path_1951" data-name="Path 1951" d="M0,0-11.818-9.505v-6.474a4.907,4.907,0,0,0-4.65-5.139H-45.755a4.908,4.908,0,0,0-4.6,5.139V9.711a5.136,5.136,0,0,0,3.083,4.83,7.706,7.706,0,0,0,4.218,10.05A7.707,7.707,0,0,0-33,20.373a7.7,7.7,0,0,0,.118-5.524h16.339a7.707,7.707,0,0,0,4.616,9.874,7.707,7.707,0,0,0,9.874-4.615,7.714,7.714,0,0,0,0-5.259h.514A2.569,2.569,0,0,0,1.028,12.28V2A2.568,2.568,0,0,0,0,0M-4.11,3.237V9.711h-7.708V-2.929Zm-33.4,14.181a2.569,2.569,0,0,1-2.569,2.569,2.569,2.569,0,0,1-2.569-2.569,2.569,2.569,0,0,1,2.569-2.569,2.569,2.569,0,0,1,2.569,2.569m12.845-7.707H-45.215v-25.69h28.259V9.711ZM-6.68,17.418a2.569,2.569,0,0,1-2.569,2.569,2.569,2.569,0,0,1-2.569-2.569,2.569,2.569,0,0,1,2.569-2.569A2.569,2.569,0,0,1-6.68,17.418" fill="#be9f57"/>
      </g>
  </g>
</svg>
