<?xml version="1.0" encoding="utf-8"?>
<!-- Generator: Adobe Illustrator 22.0.1, SVG Export Plug-In . SVG Version: 6.00 Build 0)  -->
<svg version="1.1" id="Capa_1" xmlns="http://www.w3.org/2000/svg" xmlns:xlink="http://www.w3.org/1999/xlink" x="0px" y="0px"
	 viewBox="0 0 256 256" style="enable-background:new 0 0 256 256;" xml:space="preserve">
<path d="M28,91.6c0-3.1,0.6-6.1,1.9-9.1c1.2-3,2.8-5.5,4.5-7.6c1.8-2,3.6-3.8,5.6-5.4c2-1.6,3.6-2.8,5-3.6c1.4-0.8,2.2-1.2,2.6-1.2
	c0.8,0,2,0.5,3.6,1.6c1.5,1.1,2.5,2.1,2.8,3c-3.2,1.9-5.8,4.1-7.8,6.6c-2,2.5-3.3,4.5-3.8,6c-0.5,1.5-0.8,2.6-0.8,3.5
	c0,1.5,1.2,3.6,3.7,6.3c2.5,2.7,3.7,4.8,3.7,6.5c0,2.1-1.2,4-3.6,5.5c-2.4,1.5-5.1,2.3-8.1,2.3c-2.7,0-4.9-0.6-6.6-2
	C28.9,101.4,28,97.3,28,91.6z M110.9,75.6c9.8,0,18.5,3.4,26,10.2c7.5,6.8,11.3,15.7,11.3,26.7c0,9.5-1.9,18.5-5.8,27.1
	c-3.9,8.6-9,16.1-15.5,22.7c-6.5,6.5-13.4,12.1-20.8,16.9c-7.3,4.7-15,8.8-23.1,12.1c-2.1-0.5-3.2-2.5-3.2-6
	c9.9-4.3,18.5-10.2,25.8-17.7c7.2-7.5,12.2-15.5,14.9-24.1c0.4-1.7,0.2-2.9-0.4-3.7c-3.4,1.4-6.8,2.1-10.1,2.1
	c-9.4,0-17.4-3.2-24.1-9.5c-6.7-6.3-10-13.9-10-22.7c0-9,3.5-16.9,10.5-23.8C93.3,79,101.5,75.6,110.9,75.6z M124.2,110.4
	c0-17.1-4.5-25.6-13.5-25.6c-4,0-6.9,1.8-8.5,5.5c-1.7,3.7-2.5,9.6-2.5,17.8c0,8.1,1.2,14.2,3.6,18.3c2.4,4.1,6.3,6.2,11.9,6.2
	c4.4,0,7-1.7,7.8-5C123.6,124.9,124.1,119.2,124.2,110.4z M176.8,106.9c-0.7-0.4-1.3-1-1.9-2c-0.5-0.9-0.8-1.7-0.8-2.3
	c0-1.2,0.1-1.9,0.4-2.1c6-3.9,12.3-7.9,18.8-11.9c6.5-4,11.7-7.1,15.5-9.3c3.8-2.2,5.9-3.3,6.1-3.3h0.4c0.9,0,1.7,1.1,2.1,3.4
	c-1.1,3.4-1.6,9-1.6,16.7v71.2c0,4.9,0.5,9.1,1.4,12.8c0.2,0.8,1.7,1.7,4.5,2.8c2.8,1,4.6,1.5,5.6,1.5c0.4,0,0.5,1.2,0.5,3.7
	c0,1.4-0.1,2.4-0.4,2.8c-1.3-0.1-4.8-0.4-10.6-0.8c-5.7-0.4-10-0.6-12.7-0.6c-2.7,0-7,0.2-12.9,0.6c-5.9,0.4-9.4,0.7-10.6,0.8
	c-0.5-0.5-0.7-1.7-0.7-3.6c0-2,0.2-2.9,0.7-2.9c1.3,0,3.4-0.5,6.2-1.6c2.8-1.1,4.4-2.1,4.6-3c0.7-2.8,1.1-6.2,1.1-10.1v-59.7
	c0-5.9-1.2-8.9-3.6-8.9C187.5,101,183.3,103,176.8,106.9z"/>
</svg>
