<?xml version="1.0" encoding="UTF-8" standalone="no"?>
<!-- Generator: Adobe Illustrator 16.0.0, SVG Export Plug-In . SVG Version: 6.00 Build 0)  -->

<svg
   xmlns:dc="http://purl.org/dc/elements/1.1/"
   xmlns:cc="http://creativecommons.org/ns#"
   xmlns:rdf="http://www.w3.org/1999/02/22-rdf-syntax-ns#"
   xmlns:svg="http://www.w3.org/2000/svg"
   xmlns="http://www.w3.org/2000/svg"
   xmlns:sodipodi="http://sodipodi.sourceforge.net/DTD/sodipodi-0.dtd"
   xmlns:inkscape="http://www.inkscape.org/namespaces/inkscape"
   version="1.1"
   id="_x33_d1fc7c4-4570-46b5-95de-43c82babd1ca"
   x="0px"
   y="0px"
   width="490"
   height="167.91507"
   viewBox="0 0 490.00001 167.91507"
   enable-background="new 0 0 841.891 595.281"
   xml:space="preserve"
   sodipodi:docname="jk-logo-19912.svg"
   inkscape:version="0.92.4 (5da689c313, 2019-01-14)"><metadata
   id="metadata4134"><rdf:RDF><cc:Work
       rdf:about=""><dc:format>image/svg+xml</dc:format><dc:type
         rdf:resource="http://purl.org/dc/dcmitype/StillImage" /><dc:title>jk-logo</dc:title></cc:Work></rdf:RDF></metadata><defs
   id="defs4132" /><sodipodi:namedview
   pagecolor="#ffffff"
   bordercolor="#666666"
   borderopacity="1"
   objecttolerance="10"
   gridtolerance="10"
   guidetolerance="10"
   inkscape:pageopacity="0"
   inkscape:pageshadow="2"
   inkscape:window-width="2400"
   inkscape:window-height="1284"
   id="namedview4130"
   showgrid="false"
   inkscape:zoom="0.39645142"
   inkscape:cx="550.71537"
   inkscape:cy="-290.71785"
   inkscape:window-x="-9"
   inkscape:window-y="-9"
   inkscape:window-maximized="1"
   inkscape:current-layer="_x33_d1fc7c4-4570-46b5-95de-43c82babd1ca"
   fit-margin-top="0"
   fit-margin-left="0"
   fit-margin-right="0"
   fit-margin-bottom="0" />
<title
   id="title4085">jk-logo</title>
<g
   id="g4127"
   transform="matrix(0.58211474,0,0,0.58211474,-0.07715794,-71.044776)">
	<path
   d="m 408.785,293.717 c 7.841,-9.861 10.606,-20.352 10.606,-40.118 V 123.781 c 0,-0.942 -0.754,-1.696 -1.697,-1.696 h -13.917 c -0.952,0 -1.711,0.754 -1.711,1.696 v 129.818 c 0,16.9 -1.325,22.691 -6.777,29.502 -5.976,7.358 -15.01,11.573 -24.799,11.573 -15.933,0 -27.805,-9.784 -31.73,-26.176 l -0.619,-2.61 c -0.184,-0.764 -0.871,-1.306 -1.653,-1.306 h -14.314 c -0.498,0 -0.971,0.223 -1.291,0.6 -0.328,0.386 -0.474,0.884 -0.387,1.373 l 0.619,3.934 c 3.829,24.132 23.909,40.988 48.848,40.988 15.348,-10e-4 30.236,-6.807 38.822,-17.76"
   id="path4087"
   inkscape:connector-curvature="0"
   style="fill:#bf9b5f" />
	<path
   d="m 501.43,122.732 -68.276,90.164 c -0.465,0.614 -0.47,1.46 -0.016,2.079 l 68.3,92.616 c 0.324,0.443 0.846,0.705 1.402,0.705 h 16.789 c 1.427,0 2.247,-1.619 1.401,-2.769 l -67.348,-91.461 c -0.019,-0.039 -0.019,-0.087 0,-0.13 l 67.513,-89.106 c 0.87,-1.14 0.052,-2.784 -1.388,-2.784 h -16.992 c -0.545,0 -1.061,0.251 -1.385,0.686"
   id="path4089"
   inkscape:connector-curvature="0"
   style="fill:#bf9b5f" />
	<path
   d="m 262.884,331.615 h -2.987 c -0.938,0 -1.711,0.765 -1.711,1.697 v 74.153 c 0,0.948 0.773,1.706 1.711,1.706 h 2.987 c 0.943,0 1.702,-0.758 1.702,-1.706 v -74.153 c 0,-0.932 -0.759,-1.697 -1.702,-1.697"
   id="path4091"
   inkscape:connector-curvature="0"
   style="fill:#4d4129" />
	<path
   d="m 278.905,369.896 26.916,-35.555 c 0.387,-0.512 0.455,-1.198 0.164,-1.784 -0.28,-0.574 -0.87,-0.942 -1.518,-0.942 H 300.9 c -0.532,0 -1.035,0.253 -1.354,0.672 l -27.708,36.57 c -0.45,0.599 -0.45,1.435 -0.005,2.035 l 27.694,37.584 c 0.324,0.431 0.832,0.695 1.373,0.695 h 3.567 c 0.638,0 1.219,-0.362 1.508,-0.937 0.3,-0.575 0.242,-1.252 -0.14,-1.765 z"
   id="path4093"
   inkscape:connector-curvature="0"
   style="fill:#4d4129" />
	<path
   d="M 117.824,331.615 H 74.691 c -0.94,0 -1.699,0.765 -1.699,1.697 v 2.789 c 0,0.938 0.759,1.692 1.699,1.692 H 93 v 69.672 c 0,0.948 0.763,1.706 1.704,1.706 h 3.004 c 0.945,0 1.702,-0.758 1.702,-1.706 v -69.672 h 18.415 c 0.936,0 1.697,-0.755 1.697,-1.692 v -2.789 c -0.001,-0.932 -0.762,-1.697 -1.698,-1.697"
   id="path4095"
   inkscape:connector-curvature="0"
   style="fill:#4d4129" />
	<path
   d="m 38.96,331.615 h -3 c -0.936,0 -1.699,0.765 -1.699,1.697 v 53.263 c 0,7.699 -0.742,9.927 -2.963,12.707 -2.593,3.2 -6.53,5.032 -10.796,5.032 -6.934,0 -12.093,-4.248 -13.797,-11.369 C 6.529,392.185 5.84,391.65 5.052,391.65 H 1.83 c -0.506,0 -0.97,0.211 -1.293,0.589 -0.327,0.378 -0.459,0.884 -0.384,1.363 1.564,9.954 9.84,16.9 20.136,16.9 6.334,0 12.47,-2.809 15.994,-7.305 3.236,-4.071 4.37,-8.416 4.37,-16.623 v -53.263 c -10e-4,-0.931 -0.758,-1.696 -1.693,-1.696"
   id="path4097"
   inkscape:connector-curvature="0"
   style="fill:#4d4129" />
	<path
   d="m 131.689,331.615 h -2.992 c -0.943,0 -1.707,0.765 -1.707,1.697 v 74.153 c 0,0.948 0.764,1.706 1.707,1.706 h 2.992 c 0.938,0 1.691,-0.758 1.691,-1.706 v -74.153 c 0,-0.932 -0.753,-1.697 -1.691,-1.697"
   id="path4099"
   inkscape:connector-curvature="0"
   style="fill:#4d4129" />
	<path
   d="m 62.364,331.615 h -3 c -0.93,0 -1.699,0.765 -1.699,1.697 v 74.153 c 0,0.948 0.769,1.706 1.699,1.706 h 3 c 0.94,0 1.697,-0.758 1.697,-1.706 v -74.153 c -0.001,-0.932 -0.757,-1.697 -1.697,-1.697"
   id="path4101"
   inkscape:connector-curvature="0"
   style="fill:#4d4129" />
	<path
   d="m 816.792,332.535 c -0.29,-0.565 -0.869,-0.93 -1.503,-0.93 h -3.225 c -0.546,0 -1.078,0.286 -1.387,0.735 l -47.264,67.72 v -66.748 c 0,-0.933 -0.753,-1.707 -1.701,-1.707 h -3.006 c -0.943,0 -1.702,0.774 -1.702,1.707 v 74.153 c 0,0.948 0.759,1.698 1.702,1.698 h 5.108 c 0.557,0 1.083,-0.267 1.392,-0.721 l 51.479,-74.16 c 0.358,-0.517 0.406,-1.197 0.107,-1.747"
   id="path4103"
   inkscape:connector-curvature="0"
   style="fill:#4d4129" />
	<path
   d="m 840.193,331.615 h -4.785 c -0.556,0 -1.072,0.276 -1.388,0.721 l -52.028,74.163 c -0.362,0.513 -0.406,1.195 -0.117,1.761 0.292,0.56 0.881,0.912 1.509,0.912 h 3.67 c 0.551,0 1.072,-0.269 1.387,-0.729 l 47.05,-67.067 v 66.09 c 0,0.948 0.765,1.706 1.707,1.706 h 2.996 c 0.938,0 1.697,-0.758 1.697,-1.706 v -74.153 c -10e-4,-0.933 -0.759,-1.698 -1.698,-1.698"
   id="path4105"
   inkscape:connector-curvature="0"
   style="fill:#4d4129" />
	<path
   d="m 705.615,330.286 c -10.993,0 -20.704,3.979 -28.092,11.485 -7.305,7.194 -11.858,18.056 -11.858,28.347 0,22.648 17.65,40.379 40.177,40.379 22.517,0 40.156,-17.548 40.156,-39.938 0,-22.581 -17.737,-40.273 -40.383,-40.273 m 0.438,74.028 c -19.374,0 -33.982,-14.792 -33.982,-34.428 0,-18.432 15.092,-33.428 33.648,-33.428 18.995,0 33.874,14.879 33.874,33.878 0.001,19.051 -14.729,33.978 -33.54,33.978"
   id="path4107"
   inkscape:connector-curvature="0"
   style="fill:#4d4129" />
	<path
   d="m 579.793,410.497 c 13.508,0 26.96,-7.343 33.481,-18.277 0.314,-0.531 0.323,-1.18 0.015,-1.716 -0.291,-0.532 -0.865,-0.856 -1.471,-0.856 h -3.455 c -0.555,0 -1.073,0.271 -1.389,0.721 -5.964,8.475 -16.632,13.946 -27.182,13.946 -18.799,0 -34.088,-15.232 -34.088,-33.973 0,-18.999 14.928,-33.883 33.982,-33.883 10.572,0 21.033,5.477 27.292,14.301 0.32,0.438 0.837,0.709 1.384,0.709 h 3.573 c 0.614,0 1.192,-0.338 1.482,-0.89 0.295,-0.546 0.275,-1.214 -0.066,-1.74 -7.526,-11.62 -20.104,-18.557 -33.665,-18.557 -22.274,0 -40.378,17.967 -40.378,40.06 10e-4,22.138 18.162,40.155 40.485,40.155"
   id="path4109"
   inkscape:connector-curvature="0"
   style="fill:#4d4129" />
	<path
   d="m 412.285,334.917 c -4.626,-2.377 -9.804,-3.307 -18.447,-3.307 h -20.559 c -0.942,0 -1.696,0.773 -1.696,1.707 v 74.153 c 0,0.938 0.754,1.696 1.696,1.696 h 18.78 c 10.717,0 15.546,-0.797 20.719,-3.436 11.844,-6.454 20.442,-21.339 20.442,-35.39 0,-14.341 -8.801,-29.246 -20.935,-35.423 m 4.781,59.265 c -2.866,2.973 -5.806,5.163 -8.676,6.496 -3.646,1.62 -7.861,2.302 -14.102,2.302 h -16.31 v -65.182 h 15.86 c 7.875,0 11.839,0.754 15.754,3.008 10.466,5.77 17.234,17.323 17.234,29.418 0,8.993 -3.283,17.046 -9.76,23.958"
   id="path4111"
   inkscape:connector-curvature="0"
   style="fill:#4d4129" />
	<path
   d="m 360.135,331.615 h -2.988 c -0.938,0 -1.701,0.765 -1.701,1.697 v 48.031 c 0,9.938 -1.068,12.916 -4.264,16.803 -3.262,3.872 -8.426,6.168 -13.816,6.168 -5.694,0 -10.668,-2.437 -14.019,-6.884 -3.123,-4.06 -3.848,-7.235 -3.848,-16.987 v -47.131 c 0,-0.933 -0.754,-1.697 -1.697,-1.697 h -3.011 c -0.938,0 -1.703,0.765 -1.703,1.697 v 47.131 c 0,10.143 1.291,15.344 5.115,20.59 4.293,5.834 11.636,9.47 19.162,9.47 7,0 14.097,-3.114 18.505,-8.155 4.408,-5.114 5.96,-10.611 5.96,-21.004 v -48.031 c 0.002,-0.933 -0.757,-1.698 -1.695,-1.698"
   id="path4113"
   inkscape:connector-curvature="0"
   style="fill:#4d4129" />
	<path
   d="m 147.719,369.896 26.901,-35.555 c 0.391,-0.512 0.45,-1.198 0.169,-1.778 -0.29,-0.576 -0.88,-0.953 -1.527,-0.953 h -3.553 c -0.537,0 -1.035,0.258 -1.359,0.677 l -27.68,36.57 c -0.459,0.604 -0.464,1.431 -0.024,2.035 l 27.694,37.584 c 0.319,0.431 0.821,0.69 1.369,0.69 h 3.553 c 0.638,0 1.237,-0.357 1.518,-0.932 0.285,-0.556 0.228,-1.224 -0.135,-1.74 z"
   id="path4115"
   inkscape:connector-curvature="0"
   style="fill:#4d4129" />
	<path
   d="m 625.191,331.741 h -2.988 c -0.943,0 -1.711,0.77 -1.711,1.696 v 74.16 c 0,0.941 0.768,1.701 1.711,1.701 h 2.988 c 0.942,0 1.696,-0.76 1.696,-1.701 v -74.16 c 0,-0.927 -0.753,-1.696 -1.696,-1.696"
   id="path4117"
   inkscape:connector-curvature="0"
   style="fill:#4d4129" />
	<path
   d="m 641.22,370.021 26.901,-35.555 c 0.391,-0.512 0.449,-1.197 0.169,-1.777 -0.29,-0.571 -0.885,-0.948 -1.528,-0.948 h -3.554 c -0.53,0 -1.033,0.252 -1.357,0.671 l -27.686,36.57 c -0.453,0.6 -0.458,1.432 -0.018,2.035 l 27.689,37.584 c 0.323,0.432 0.83,0.697 1.371,0.697 h 3.554 c 0.64,0 1.233,-0.363 1.519,-0.938 0.285,-0.552 0.228,-1.223 -0.136,-1.735 z"
   id="path4119"
   inkscape:connector-curvature="0"
   style="fill:#4d4129" />
	<path
   d="m 212.944,331.615 h -4.767 c -0.56,0 -1.087,0.271 -1.401,0.721 l -37.981,54.146 c -0.281,0.396 -0.281,0.933 0.014,1.328 l 1.726,2.316 v 0.005 l 0.435,0.584 0.619,0.842 c 0.01,0 0.813,1.05 1.6,-0.188 l 35.052,-49.994 v 66.09 c 0,0.948 0.773,1.706 1.701,1.706 h 3.002 c 0.942,0 1.697,-0.758 1.697,-1.706 v -74.153 c 0,-0.932 -0.755,-1.697 -1.697,-1.697"
   id="path4121"
   inkscape:connector-curvature="0"
   style="fill:#4d4129" />
	<path
   d="m 447.859,403.014 h -0.106 v -69.639 c 0,-0.938 -0.766,-1.708 -1.697,-1.708 h -3.017 c -0.942,0 -1.697,0.77 -1.697,1.708 v 74.13 c 0,0.942 0.755,1.696 1.697,1.696 h 20.056 c 0.944,0 1.697,-0.754 1.697,-1.696 v -2.79 c 0,-0.875 -0.676,-1.537 -1.531,-1.634 H 447.86 v -0.067 z"
   id="path4123"
   inkscape:connector-curvature="0"
   style="fill:#4d4129" />
	<path
   d="m 529.554,331.674 h -4.786 c -0.552,0 -1.064,0.271 -1.392,0.721 l -52.005,74.134 c -0.368,0.513 -0.411,1.204 -0.107,1.765 0.286,0.562 0.867,0.909 1.499,0.909 h 3.668 c 0.547,0 1.074,-0.262 1.388,-0.726 l 47.037,-67.043 v 66.072 c 0,0.938 0.759,1.696 1.709,1.696 h 2.989 c 0.938,0 1.7,-0.759 1.7,-1.696 v -74.13 c 10e-4,-0.935 -0.762,-1.702 -1.7,-1.702"
   id="path4125"
   inkscape:connector-curvature="0"
   style="fill:#4d4129" />
</g>
</svg>