<svg id="3d1fc7c4-4570-46b5-95de-43c82babd1ca" data-name="Layer 1" xmlns="http://www.w3.org/2000/svg" viewBox="0 0 492.97 168.67"><title>jk-logo</title><path d="M484.81,166.88h1.76V123.27h-2.81l-30.6,43.61h2.16l29.49-42v42Zm-19-43.61-29.62,42.44V123.27h-1.77v43.61h3l30.27-43.61ZM403.47,166c-12,0-21-9.09-21-21.25a20.86,20.86,0,1,1,21,21.25Zm-.26-43.55A21.7,21.7,0,0,0,387.4,129a23.2,23.2,0,0,0-6.68,16,22.63,22.63,0,1,0,22.49-22.43Zm-74.06,1.63A21.09,21.09,0,0,1,346,132.94h2.1a22.62,22.62,0,1,0-18.9,34.73c7.65,0,15.17-4.12,18.83-10.27h-2a20.94,20.94,0,1,1-16.86-33.29Zm-30.7.73-28.34,40.4h10.62v1.64h-20.2V123.27h1.77v42H268l29.46-42h2.81v43.61h-1.77v-42ZM246,159.76a18.89,18.89,0,0,1-5.43,4.05,21,21,0,0,1-8.7,1.43H221.25V124.9h10.33c4.78,0,7.26.46,9.75,1.89a21,21,0,0,1,4.64,33Zm-4-34.66c-2.54-1.31-5.49-1.83-10.39-1.83H219.49v43.61h11c6.28,0,8.9-.46,11.71-1.9,6.6-3.59,11.5-12,11.5-19.94s-5-16.47-11.77-19.94Zm-33.46,26.41c0,5.82-.58,7.92-2.74,10.53a11.59,11.59,0,0,1-8.89,4,11,11,0,0,1-9-4.45c-2-2.61-2.47-4.7-2.47-10.59V123.27H183.6V151c0,5.82.72,8.64,2.81,11.51a13.11,13.11,0,0,0,10.47,5.17A13.9,13.9,0,0,0,207,163.22c2.42-2.81,3.27-5.82,3.27-11.71V123.27h-1.77v28.24Zm-54-28.24h-1.76v43.61h1.76V123.27Zm22.36,43.61H179l-16.28-22.1L179,123.27h-2.1l-16.29,21.51,16.29,22.1ZM77.38,123.27H75.62v43.61h1.76V123.27Zm46,43.61h1.77V123.27h-2.81L96.68,159.88,85.56,144.77l16.27-21.5H99.74l-16.28,21.5,16.28,22.11h2.09l-4-5.5,25.62-36.54v42Zm-79.55-42H55.63v42H57.4v-42H69.23v-1.63H43.86v1.63Zm-9,42h1.77V123.27H34.84v43.61ZM21.08,154.59c0,4.51-.4,6.14-2,8.11A9.16,9.16,0,0,1,12,166c-4.57,0-8-2.81-9.08-7.46H1a10.71,10.71,0,0,0,10.86,9.1,11.1,11.1,0,0,0,8.62-3.93c1.77-2.22,2.36-4.57,2.36-9.15V123.27H21.08v31.32Z" fill="#523e36" stroke="#523e36" stroke-linejoin="round" stroke-width="2"/><polygon points="378.26 166.87 380.35 166.87 364.07 144.76 380.35 123.26 378.26 123.26 361.95 144.76 378.26 166.87 378.26 166.87" fill="#523e36" stroke="#523e36" stroke-width="2"/><polygon points="355.89 123.26 354.13 123.26 354.13 166.87 355.89 166.87 355.89 123.26 355.89 123.26" fill="#523e36" stroke="#523e36" stroke-width="2"/><path d="M237.86,76.37c0,10.72-.93,14.59-4.66,19.25a21.74,21.74,0,0,1-16.92,7.92c-10.86,0-18.93-6.68-21.58-17.7h-4.5c2,12.73,12.58,21.58,25.77,21.58,8.07,0,16-3.57,20.49-9.31,4.2-5.28,5.59-10.87,5.59-21.74V2h-4.19V76.37Z" fill="#b4975a" stroke="#b4975a" stroke-width="4"/><polygon points="295.14 105.54 300.1 105.54 261.45 53.06 300.1 2 295.14 2 256.45 53.06 295.14 105.54 295.14 105.54" fill="#b4975a" stroke="#b4975a" stroke-width="4"/><rect x="302.88" y="122.23" width="3.83" height="10" fill="#523e36"/><rect x="323.63" y="115.65" width="10" height="3.83" fill="#523e36"/><rect x="489.13" y="122.23" width="3.83" height="10" fill="#523e36"/></svg>