<?xml version="1.0" encoding="utf-8"?>
<!-- Generator: Adobe Illustrator 26.0.3, SVG Export Plug-In . SVG Version: 6.00 Build 0)  -->
<!DOCTYPE svg PUBLIC "-//W3C//DTD SVG 1.1//EN" "http://www.w3.org/Graphics/SVG/1.1/DTD/svg11.dtd" [
	<!ENTITY ns_extend "http://ns.adobe.com/Extensibility/1.0/">
	<!ENTITY ns_ai "http://ns.adobe.com/AdobeIllustrator/10.0/">
	<!ENTITY ns_graphs "http://ns.adobe.com/Graphs/1.0/">
	<!ENTITY ns_vars "http://ns.adobe.com/Variables/1.0/">
	<!ENTITY ns_imrep "http://ns.adobe.com/ImageReplacement/1.0/">
	<!ENTITY ns_sfw "http://ns.adobe.com/SaveForWeb/1.0/">
	<!ENTITY ns_custom "http://ns.adobe.com/GenericCustomNamespace/1.0/">
	<!ENTITY ns_adobe_xpath "http://ns.adobe.com/XPath/1.0/">
]>
<svg version="1.1" id="Vrstva_1" xmlns:x="&ns_extend;" xmlns:i="&ns_ai;" xmlns:graph="&ns_graphs;"
	 xmlns="http://www.w3.org/2000/svg" xmlns:xlink="http://www.w3.org/1999/xlink" x="0px" y="0px" viewBox="0 0 186 82"
	 style="enable-background:new 0 0 186 82;" xml:space="preserve">
<style type="text/css">
	.st0{fill:#BE9F57;}
	.st1{fill:#3D3417;}
</style>
<metadata>
	<sfw  xmlns="&ns_sfw;">
		<slices></slices>
		<sliceSourceBounds  bottomLeftOrigin="true" height="81.645287" width="185.456665" x="132.761139" y="-80.909096">
			</sliceSourceBounds>
	</sfw>
</metadata>
<path class="st0" d="M90.305206,38.088032c1.727608-2.172073,2.337585-4.485481,2.337585-8.83893V0.647632
	c0-0.206422-0.167374-0.373791-0.373795-0.373791h-3.068428c-0.208282,0-0.373795,0.167369-0.373795,0.373791v28.601469
	c0,3.723024-0.293823,5.000608-1.495163,6.501345c-1.316635,1.619759-3.306465,2.547729-5.463661,2.547729
	c-3.511024,0-6.125694-2.155342-6.990433-5.766788l-0.135757-0.574631c-0.040916-0.16737-0.191544-0.286386-0.366348-0.286386
	h-3.152115c-0.11158,0-0.215721,0.048349-0.284523,0.132034c-0.072533,0.083685-0.104141,0.193405-0.085548,0.301264
	l0.135757,0.8666c0.842422,5.316746,5.268394,9.030476,10.76181,9.030476
	C85.133507,42.000744,88.413933,40.501862,90.305206,38.088032"/>
<path class="st0" d="M110.716576,0.41629l-15.04274,19.864824c-0.10228,0.13575-0.104141,0.321712-0.003716,0.45933
	l15.048309,20.404114c0.072525,0.098564,0.185966,0.156216,0.308708,0.156216h3.698845
	c0.314278,0,0.496521-0.358917,0.310562-0.611828l-14.838173-20.14934c-0.005577-0.0093-0.005577-0.02046,0-0.02976
	l14.873505-19.630501c0.191551-0.252909,0.011162-0.615541-0.304985-0.615541h-3.745338
	C110.902534,0.263804,110.789093,0.32145,110.716576,0.41629"/>
<path class="st1" d="M58.161095,46.437134h-0.658318c-0.208282,0-0.375652,0.169231-0.375652,0.373791V63.14798
	c0,0.21014,0.16737,0.37751,0.375652,0.37751h0.658318c0.208279,0,0.373787-0.16737,0.373787-0.37751V46.810925
	C58.534882,46.606365,58.369373,46.437134,58.161095,46.437134"/>
<path class="st1" d="M61.690529,54.871964l5.930435-7.834717c0.083679-0.111584,0.100426-0.264072,0.035324-0.39053
	c-0.063217-0.128319-0.191536-0.21014-0.334724-0.21014h-0.784775c-0.119019,0-0.228745,0.055786-0.299408,0.148773
	l-6.103386,8.057877c-0.100422,0.132034-0.100422,0.316143-0.001858,0.448174l6.101521,8.28104
	c0.070671,0.094841,0.182243,0.152489,0.303131,0.152489h0.784775c0.141335,0,0.269638-0.079964,0.334724-0.206421
	c0.065102-0.126457,0.050217-0.277088-0.031609-0.390526L61.690529,54.871964z"/>
<path class="st1" d="M26.200718,46.437134h-9.502831c-0.208281,0-0.37565,0.169231-0.37565,0.373791v0.615547
	c0,0.206421,0.16737,0.373791,0.37565,0.373791h4.033588V63.14798c0,0.21014,0.169228,0.37751,0.37565,0.37751h0.662037
	c0.208281,0,0.375648-0.16737,0.375648-0.37751V47.800262h4.055906c0.206419,0,0.373789-0.16737,0.373789-0.373791v-0.615547
	C26.574507,46.606365,26.407137,46.437134,26.200718,46.437134"/>
<path class="st1" d="M8.825418,46.437134H8.165241c-0.208282,0-0.373791,0.169231-0.373791,0.373791v11.734413
	c0,1.697865-0.163649,2.188812-0.654598,2.80064c-0.570914,0.706669-1.437512,1.11021-2.378497,1.11021
	c-1.528635,0-2.664883-0.937263-3.038674-2.506813c-0.040912-0.167366-0.191544-0.284527-0.364492-0.284527H0.644802
	c-0.10972,0-0.21386,0.046494-0.284527,0.128319c-0.070667,0.085545-0.102281,0.195263-0.085544,0.301262
	c0.344036,2.194393,2.168356,3.723026,4.437134,3.723026c1.3966,0,2.746708-0.617405,3.524042-1.610458
	c0.712248-0.894493,0.963301-1.852215,0.963301-3.661659V46.810925C9.199207,46.606365,9.031838,46.437134,8.825418,46.437134"/>
<path class="st1" d="M29.254827,46.437134H28.59651c-0.208282,0-0.37565,0.169231-0.37565,0.373791V63.14798
	c0,0.21014,0.167368,0.37751,0.37565,0.37751h0.658318c0.206419,0,0.373789-0.16737,0.373789-0.37751V46.810925
	C29.628616,46.606365,29.461246,46.437134,29.254827,46.437134"/>
<path class="st1" d="M13.981865,46.437134h-0.660177c-0.206422,0-0.373791,0.169231-0.373791,0.373791V63.14798
	c0,0.21014,0.167369,0.37751,0.373791,0.37751h0.660177c0.208282,0,0.37379-0.16737,0.37379-0.37751V46.810925
	C14.355655,46.606365,14.190146,46.437134,13.981865,46.437134"/>
<path class="st1" d="M180.19751,46.639835c-0.063232-0.124596-0.19342-0.202702-0.331024-0.202702h-0.710388
	c-0.12088,0-0.238037,0.061371-0.306854,0.159931l-10.412201,14.92186V46.812782c0-0.206421-0.167358-0.375648-0.373779-0.375648
	h-0.663895c-0.208282,0-0.373795,0.169228-0.373795,0.375648v16.337055c0,0.206425,0.165512,0.373791,0.373795,0.373791h1.126953
	c0.120865,0,0.236176-0.059509,0.306839-0.159927l11.340164-16.337059
	C180.253296,46.911346,180.262589,46.762577,180.19751,46.639835"/>
<path class="st1" d="M185.35321,46.437134h-1.054428c-0.122742,0-0.236176,0.061371-0.306839,0.159931L172.529037,62.93412
	c-0.079971,0.115299-0.089264,0.26593-0.024185,0.388668c0.063248,0.124596,0.191544,0.202702,0.331024,0.202702h0.808945
	c0.122742,0,0.236176-0.059509,0.306839-0.159931l10.365707-14.778664V63.14798c0,0.21014,0.167374,0.37751,0.375656,0.37751
	h0.660187c0.206406,0,0.373779-0.16737,0.373779-0.37751V46.810925C185.72699,46.606365,185.559616,46.437134,185.35321,46.437134"
	/>
<path class="st1" d="M155.799957,62.455257c-4.26976,0-7.486969-3.259972-7.486969-7.585526
	c0-4.061481,3.325058-7.364227,7.414444-7.364227c4.182358,0,7.460922,3.276711,7.460922,7.462788
	C163.188354,59.165531,159.943268,62.455257,155.799957,62.455257 M155.703262,46.144238
	c-2.423126,0-4.563599,0.877754-6.190796,2.530987c-1.606735,1.584427-2.610947,3.977798-2.610947,6.246578
	c0,4.987591,3.886673,8.894722,8.851944,8.894722c4.959686,0,8.846375-3.866222,8.846375-8.799881
	C164.599838,50.042072,160.692719,46.144238,155.703262,46.144238"/>
<path class="st1" d="M127.981781,63.817268c2.975449,0,5.939728-1.617897,7.377243-4.028008
	c0.068802-0.115299,0.070663-0.258492,0.003708-0.375652c-0.065079-0.119015-0.191528-0.189682-0.325424-0.189682h-0.760605
	c-0.122742,0-0.236176,0.057648-0.306854,0.15807c-1.312897,1.867092-3.663498,3.072147-5.988068,3.072147
	c-4.141457,0-7.511139-3.356674-7.511139-7.485104c0-4.184223,3.289719-7.464649,7.490677-7.464649
	c2.326431,0,4.632401,1.206913,6.010391,3.150253c0.070679,0.09856,0.184128,0.156208,0.304993,0.156208h0.784775
	c0.135757,0,0.264069-0.072525,0.329147-0.193401c0.065094-0.12088,0.061386-0.269653-0.014862-0.383087
	c-1.658813-2.562603-4.429703-4.089382-7.414444-4.089382c-4.907623,0-8.898438,3.957344-8.898438,8.824059
	C119.062881,59.846909,123.062988,63.817268,127.981781,63.817268"/>
<path class="st1" d="M92.129341,60.221813c-0.632286,0.65646-1.277588,1.138107-1.911728,1.431934
	c-0.803368,0.355194-1.731339,0.505825-3.105614,0.505825h-3.594719V47.799332h3.494293
	c1.736916,0,2.609093,0.16737,3.471977,0.663895c2.305962,1.270142,3.795547,3.816006,3.795547,6.480892
	C94.279099,56.924648,93.557556,58.700615,92.129341,60.221813 M91.076775,47.165184
	c-1.019089-0.522556-2.159058-0.727119-4.065201-0.727119h-4.528259c-0.208282,0-0.375648,0.169228-0.375648,0.373791v16.338913
	c0,0.206421,0.167366,0.373791,0.375648,0.373791h4.137733c2.361755,0,3.425484-0.17667,4.563591-0.756878
	c2.609093-1.422638,4.504082-4.701206,4.504082-7.797527C95.688721,51.810604,93.750961,48.526451,91.076775,47.165184"/>
<path class="st1" d="M79.58654,46.437134h-0.658318c-0.206421,0-0.373795,0.169231-0.373795,0.373791v10.581429
	c0,2.190674-0.236176,2.84713-0.940987,3.702572c-0.717827,0.853577-1.855934,1.361263-3.04425,1.361263
	c-1.25341,0-2.350601-0.537437-3.088882-1.519337c-0.686211-0.894493-0.846146-1.593719-0.846146-3.741623V46.810925
	c0-0.204559-0.167374-0.373791-0.375648-0.373791h-0.662041c-0.206421,0-0.373787,0.169231-0.373787,0.373791v10.384304
	c0,2.235306,0.282669,3.380852,1.125092,4.537556c0.946556,1.285023,2.564461,2.084671,4.221413,2.084671
	c1.545372,0,3.105614-0.686211,4.078217-1.794567c0.970741-1.128807,1.312912-2.339443,1.312912-4.630535V46.810925
	C79.96032,46.606365,79.794815,46.437134,79.58654,46.437134"/>
<path class="st1" d="M32.786121,54.871777l5.926712-7.834721c0.087406-0.111576,0.100422-0.264069,0.039055-0.390526
	c-0.06509-0.126457-0.195263-0.21014-0.336597-0.21014h-0.782913c-0.119019,0-0.228737,0.05579-0.301266,0.148773
	l-6.097803,8.057877c-0.100422,0.132038-0.102282,0.314281-0.003721,0.448177l6.099667,8.281036
	c0.070667,0.094841,0.182243,0.152489,0.303123,0.152489h0.782913c0.139473,0,0.26965-0.079964,0.332878-0.206421
	c0.063229-0.122738,0.050213-0.26965-0.029755-0.383087L32.786121,54.871777z"/>
<path class="st1" d="M137.983566,46.465214h-0.658325c-0.208282,0-0.375656,0.169231-0.375656,0.373791v16.338913
	c0,0.208282,0.167374,0.375652,0.375656,0.375652h0.658325c0.208282,0,0.373779-0.16737,0.373779-0.375652V46.839005
	C138.357346,46.634445,138.191849,46.465214,137.983566,46.465214"/>
<path class="st1" d="M141.514847,54.899857l5.926712-7.834717c0.087402-0.11158,0.100418-0.264072,0.039047-0.390526
	c-0.065079-0.126457-0.195251-0.210144-0.336594-0.210144h-0.782913c-0.119003,0-0.228745,0.055794-0.30127,0.148773
	l-6.097809,8.05788c-0.100418,0.132034-0.10228,0.314278-0.003708,0.448174l6.099655,8.281036
	c0.070679,0.094845,0.182251,0.152493,0.303131,0.152493h0.782913c0.139481,0,0.269653-0.079964,0.33287-0.206421
	c0.063248-0.122738,0.050217-0.26965-0.029755-0.383087L141.514847,54.899857z"/>
<path class="st1" d="M47.157154,46.437134h-1.050705c-0.122738,0-0.238037,0.059513-0.308704,0.159931l-8.366581,11.927818
	c-0.063229,0.089264-0.061367,0.206421,0.001862,0.293823l0.381229,0.511406l0.094837,0.128315l0.137619,0.185966
	c0,0,0.176666,0.232456,0.351471-0.040913l7.723141-11.016586V63.14798c0,0.21014,0.169228,0.37751,0.375648,0.37751h0.660183
	c0.206417,0,0.373787-0.16737,0.373787-0.37751V46.810925C47.530941,46.606365,47.363571,46.437134,47.157154,46.437134"/>
<path class="st1" d="M98.914101,62.168499h-0.024178v-15.34214c0-0.206421-0.167374-0.375648-0.373795-0.375648h-0.663902
	c-0.208275,0-0.375648,0.169228-0.375648,0.375648v16.331478c0,0.206421,0.167374,0.373791,0.375648,0.373791h4.418541
	c0.206421,0,0.373787-0.16737,0.373787-0.373791v-0.613686c0-0.193405-0.148766-0.340317-0.338455-0.360775h-3.391998V62.168499z"/>
<path class="st1" d="M116.913124,46.450336h-1.054428c-0.12088,0-0.236168,0.059513-0.306839,0.159931l-11.457329,16.333336
	c-0.079964,0.113438-0.091118,0.264069-0.024178,0.388668c0.063232,0.122738,0.191551,0.20084,0.329163,0.20084h0.808945
	c0.120888,0,0.236183-0.059505,0.306847-0.161789l10.361984-14.771225v14.557365c0,0.208282,0.167374,0.375648,0.375656,0.375648
	h0.660179c0.206413,0,0.375648-0.167366,0.375648-0.375648V46.825989
	C117.288773,46.619568,117.119537,46.450336,116.913124,46.450336"/>
<path class="st1" d="M129.767792,81.760323h1.463547v-3.548218h3.206039v3.548218h1.463547V73.7043h-1.463547v3.228363h-3.206039
	V73.7043h-1.463547V81.760323z M121.819633,81.760323h1.491432l0.615547-2.155342h2.672333l0.615532,2.155342h1.552826
	l-2.610954-8.056023h-1.725761L121.819633,81.760323z M124.529152,77.499855c0.258492-0.851723,0.492805-1.762955,0.70295-2.651863
	h0.048347c0.234322,0.875893,0.468636,1.80014,0.727127,2.651863l0.2715,0.961441h-2.019577L124.529152,77.499855z
	 M118.234222,81.760323h1.465408v-6.824928h2.315262V73.7043h-6.097794v1.231094h2.317123V81.760323z M109.436203,81.760323
	h5.703552V80.53109h-3.905266l3.86808-5.939735V73.7043h-5.309311v1.231094h3.498001l-3.855057,5.952751V81.760323z
	 M104.950722,81.760323h1.736916l2.538429-8.056023h-1.504463l-1.145546,4.028015
	c-0.258492,0.913086-0.429581,1.701576-0.701096,2.612808h-0.050209c-0.269646-0.911232-0.455612-1.699722-0.701088-2.610954
	l-1.073021-4.029869h-1.550949L104.950722,81.760323z M94.465996,81.760323h4.989449V80.53109h-3.524048v-2.343163h2.882469
	v-1.231094h-2.882469v-2.021439h3.399452V73.7043h-4.864853V81.760323z M89.943321,81.909096
	c1.761086,0,2.512383-1.218079,2.512383-2.733696v-5.4711h-1.465401v5.348366c0,1.169724-0.381233,1.588142-1.169724,1.588142
	c-0.516983,0-0.948425-0.258492-1.232948-0.775475l-0.948425,0.639725C88.132011,81.466499,88.883316,81.909096,89.943321,81.909096
	 M78.521324,81.760323h1.465408v-2.328285l1.132523-1.428215l2.157196,3.7565h1.614182l-2.895477-4.902046l2.477058-3.153976
	h-1.627197l-2.821098,3.622604h-0.037186V73.7043h-1.465408V81.760323z M72.667137,77.462662v-2.588638h1.110214
	c1.097191,0,1.688568,0.319862,1.688568,1.232948c0,0.900078-0.591377,1.35569-1.688568,1.35569H72.667137z M71.203583,81.760323
	h1.463554v-3.127937h1.195747l1.725761,3.127937h1.638359L75.319,78.409225c0.959579-0.331017,1.586281-1.082321,1.586281-2.302254
	c0-1.811302-1.290596-2.402672-2.981026-2.402672h-2.720673V81.760323z M64.560905,81.760323h4.989449V80.53109h-3.524048v-2.343163
	h2.882469v-1.231094h-2.882469v-2.021439h3.401314V73.7043h-4.866714V81.760323z M58.842472,77.646767v-2.772743h0.974457
	c1.171577,0,1.787125,0.34404,1.787125,1.331512c0,0.972603-0.554176,1.441231-1.738777,1.441231H58.842472z M57.378922,81.760323
	h1.463551V78.81649h1.134384c1.738781,0,3.07959-0.812668,3.07959-2.610954c0-1.872673-1.340809-2.501236-3.127941-2.501236
	h-2.549583V81.760323z M52.387611,73.086899H53.9646l1.182739-1.366844l-0.628563-0.418427l-1.318493,1.084183h-0.048351
	l-1.320354-1.084183l-0.626705,0.418427L52.387611,73.086899z M53.003159,81.909096c1.824322,0,2.906639-1.095337,2.906639-2.400818
	c0-1.171577-0.663895-1.775963-1.623478-2.181374l-1.086037-0.444458c-0.665756-0.282661-1.270145-0.505821-1.270145-1.121368
	c0-0.580208,0.481651-0.924248,1.232948-0.924248c0.617409,0,1.208775,0.245476,1.712746,0.676918l0.788494-0.959587
	c-0.628567-0.604385-1.526779-0.996773-2.50124-0.996773c-1.576984,0-2.709511,0.996773-2.709511,2.289238
	c0,1.171577,0.823826,1.80014,1.625336,2.133018l1.097195,0.47979c0.727127,0.308701,1.24411,0.518845,1.24411,1.158569
	c0,0.617401-0.492809,1.022804-1.379864,1.022804c-0.777336,0-1.576988-0.319862-2.155342-0.874039l-0.78849,0.961441
	C50.858978,81.503693,51.892948,81.909096,53.003159,81.909096"/>
</svg>
