<?xml version="1.0" encoding="utf-8"?>
<!-- Generator: Adobe Illustrator 25.0.0, SVG Export Plug-In . SVG Version: 6.00 Build 0)  -->
<svg version="1.1" id="Vrstva_1" xmlns="http://www.w3.org/2000/svg" xmlns:xlink="http://www.w3.org/1999/xlink" x="0px" y="0px"
	 viewBox="0 0 362.9 69.9" style="enable-background:new 0 0 362.9 69.9;" xml:space="preserve">
<style type="text/css">
	.st0{fill:#3D3416;}
	.st1{fill:#BD9E56;}
</style>
<path class="st0" d="M253.4,29.8c-2.2,0-4.3,0.3-6.1,0.9l20.4-25c0.2-0.3,0-0.7-0.3-0.7h-30.2c-0.2,0-0.4,0.2-0.4,0.4v1
	c0,0.2,0.2,0.4,0.4,0.4h27.4l-21.6,26.7l0.4,0.3c1.2-0.7,2.7-1.3,4.4-1.7c1.8-0.4,3.5-0.6,5.3-0.6c5.3,0,9.6,1.5,12.7,4.4
	c3.2,2.9,4.7,6.9,4.7,12c0,3.9-0.9,7.4-2.6,10.5c-1.7,3.1-4.1,5.5-7.1,7.2c-3.1,1.7-6.6,2.6-10.5,2.6c-2.6,0-5.2-0.6-7.7-1.7
	c-2.3-1-4.2-2.4-5.8-4c-0.2-0.2-0.5-0.2-0.6,0l-0.5,0.8c-0.1,0.2-0.1,0.4,0,0.5c1.9,1.9,4,3.4,6.4,4.5c2.5,1.1,5.2,1.7,8.1,1.7
	c4.3,0,8.1-0.9,11.5-2.8c3.4-1.8,6-4.4,7.9-7.8c1.9-3.4,2.8-7.2,2.8-11.4c0-3.9-0.9-7.3-2.6-10.1c-1.7-2.8-4-4.9-6.9-6.3
	C260.2,30.2,256.9,29.6,253.4,29.8"/>
<path class="st1" d="M88.8,43.8c1.7-2.1,2.3-4.4,2.3-8.7V6.8c0-0.2-0.2-0.4-0.4-0.4h-3c-0.2,0-0.4,0.2-0.4,0.4V35
	c0,3.7-0.3,4.9-1.5,6.4c-1.3,1.6-3.3,2.5-5.4,2.5c-3.5,0-6-2.1-6.9-5.7l-0.1-0.6c0-0.2-0.2-0.3-0.4-0.3H70c-0.1,0-0.2,0-0.3,0.1
	c-0.1,0.1-0.1,0.2-0.1,0.3l0.1,0.9c0.8,5.2,5.2,8.9,10.6,8.9C83.7,47.6,86.9,46.1,88.8,43.8"/>
<path class="st1" d="M108.9,6.6L94.1,26.2c-0.1,0.1-0.1,0.3,0,0.5l14.8,20.1c0.1,0.1,0.2,0.2,0.3,0.2h3.6c0.3,0,0.5-0.4,0.3-0.6
	L98.6,26.5c0,0,0,0,0,0l14.7-19.4c0.2-0.2,0-0.6-0.3-0.6h-3.7C109.1,6.5,109,6.5,108.9,6.6"/>
<path class="st0" d="M57.1,52h-0.7c-0.2,0-0.4,0.2-0.4,0.4v16.1c0,0.2,0.2,0.4,0.4,0.4h0.7c0.2,0,0.4-0.2,0.4-0.4V52.4
	C57.5,52.2,57.3,52,57.1,52"/>
<path class="st0" d="M60.6,60.3l5.8-7.7c0.1-0.1,0.1-0.3,0-0.4c-0.1-0.1-0.2-0.2-0.3-0.2h-0.8c-0.1,0-0.2,0.1-0.3,0.1l-6,7.9
	c-0.1,0.1-0.1,0.3,0,0.4l6,8.2c0.1,0.1,0.2,0.2,0.3,0.2h0.8c0.1,0,0.3-0.1,0.3-0.2c0.1-0.1,0.1-0.3,0-0.4L60.6,60.3z"/>
<path class="st0" d="M25.6,52h-9.4c-0.2,0-0.4,0.2-0.4,0.4V53c0,0.2,0.2,0.4,0.4,0.4h4v15.1c0,0.2,0.2,0.4,0.4,0.4h0.7
	c0.2,0,0.4-0.2,0.4-0.4V53.3h4c0.2,0,0.4-0.2,0.4-0.4v-0.6C25.9,52.2,25.8,52,25.6,52"/>
<path class="st0" d="M8.4,52H7.8c-0.2,0-0.4,0.2-0.4,0.4v11.6c0,1.7-0.2,2.2-0.6,2.8c-0.6,0.7-1.4,1.1-2.3,1.1c-1.5,0-2.6-0.9-3-2.5
	c0-0.2-0.2-0.3-0.4-0.3H0.4c-0.1,0-0.2,0-0.3,0.1C0,65.3,0,65.4,0,65.5c0.3,2.2,2.1,3.7,4.4,3.7c1.4,0,2.7-0.6,3.5-1.6
	c0.7-0.9,0.9-1.8,0.9-3.6V52.4C8.8,52.2,8.6,52,8.4,52"/>
<path class="st0" d="M28.6,52h-0.7c-0.2,0-0.4,0.2-0.4,0.4v16.1c0,0.2,0.2,0.4,0.4,0.4h0.7c0.2,0,0.4-0.2,0.4-0.4V52.4
	C29,52.2,28.8,52,28.6,52"/>
<path class="st0" d="M13.5,52h-0.7c-0.2,0-0.4,0.2-0.4,0.4v16.1c0,0.2,0.2,0.4,0.4,0.4h0.7c0.2,0,0.4-0.2,0.4-0.4V52.4
	C13.9,52.2,13.7,52,13.5,52"/>
<path class="st0" d="M177.5,52.2c-0.1-0.1-0.2-0.2-0.3-0.2h-0.7c-0.1,0-0.2,0.1-0.3,0.2l-10.3,14.7V52.4c0-0.2-0.2-0.4-0.4-0.4h-0.7
	c-0.2,0-0.4,0.2-0.4,0.4v16.1c0,0.2,0.2,0.4,0.4,0.4h1.1c0.1,0,0.2-0.1,0.3-0.2l11.2-16.1C177.5,52.5,177.5,52.3,177.5,52.2"/>
<path class="st0" d="M182.5,52h-1c-0.1,0-0.2,0.1-0.3,0.2l-11.3,16.1c-0.1,0.1-0.1,0.3,0,0.4c0.1,0.1,0.2,0.2,0.3,0.2h0.8
	c0.1,0,0.2-0.1,0.3-0.2l10.2-14.6v14.4c0,0.2,0.2,0.4,0.4,0.4h0.7c0.2,0,0.4-0.2,0.4-0.4V52.4C182.9,52.2,182.7,52,182.5,52"/>
<path class="st0" d="M153.3,51.7c-2.4,0-4.5,0.9-6.1,2.5c-1.6,1.6-2.6,3.9-2.6,6.2c0,4.9,3.8,8.8,8.7,8.8c4.9,0,8.7-3.8,8.7-8.7
	C162.1,55.6,158.2,51.7,153.3,51.7 M153.4,67.8c-4.2,0-7.4-3.2-7.4-7.5c0-4,3.3-7.3,7.3-7.3c4.1,0,7.4,3.2,7.4,7.4
	C160.7,64.6,157.5,67.8,153.4,67.8"/>
<path class="st0" d="M126,69.1c2.9,0,5.9-1.6,7.3-4c0.1-0.1,0.1-0.3,0-0.4c-0.1-0.1-0.2-0.2-0.3-0.2h-0.8c-0.1,0-0.2,0.1-0.3,0.2
	c-1.3,1.8-3.6,3-5.9,3c-4.1,0-7.4-3.3-7.4-7.4c0-4.1,3.2-7.4,7.4-7.4c2.3,0,4.6,1.2,5.9,3.1c0.1,0.1,0.2,0.2,0.3,0.2h0.8
	c0.1,0,0.3-0.1,0.3-0.2c0.1-0.1,0.1-0.3,0-0.4c-1.6-2.5-4.4-4-7.3-4c-4.8,0-8.8,3.9-8.8,8.7C117.2,65.2,121.1,69.1,126,69.1"/>
<path class="st0" d="M89.6,52.7c-1-0.5-2.1-0.7-4-0.7h-4.5c-0.2,0-0.4,0.2-0.4,0.4v16.1c0,0.2,0.2,0.4,0.4,0.4h4.1
	c2.3,0,3.4-0.2,4.5-0.7c2.6-1.4,4.4-4.6,4.4-7.7C94.1,57.3,92.2,54.1,89.6,52.7 M90.6,65.6c-0.6,0.6-1.3,1.1-1.9,1.4
	c-0.8,0.3-1.7,0.5-3.1,0.5h-3.5V53.3h3.4c1.7,0,2.6,0.2,3.4,0.7c2.3,1.3,3.7,3.8,3.7,6.4C92.7,62.3,92,64.1,90.6,65.6"/>
<path class="st0" d="M78.2,52h-0.7c-0.2,0-0.4,0.2-0.4,0.4v10.4c0,2.2-0.2,2.8-0.9,3.7c-0.7,0.8-1.8,1.3-3,1.3c-1.2,0-2.3-0.5-3-1.5
	c-0.7-0.9-0.8-1.6-0.8-3.7V52.4c0-0.2-0.2-0.4-0.4-0.4h-0.7c-0.2,0-0.4,0.2-0.4,0.4v10.2c0,2.2,0.3,3.3,1.1,4.5
	c0.9,1.3,2.5,2.1,4.2,2.1c1.5,0,3.1-0.7,4-1.8c1-1.1,1.3-2.3,1.3-4.6V52.4C78.6,52.2,78.4,52,78.2,52"/>
<path class="st0" d="M32.1,60.3l5.8-7.7c0.1-0.1,0.1-0.3,0-0.4c-0.1-0.1-0.2-0.2-0.3-0.2h-0.8c-0.1,0-0.2,0.1-0.3,0.1l-6,7.9
	c-0.1,0.1-0.1,0.3,0,0.4l6,8.2c0.1,0.1,0.2,0.2,0.3,0.2h0.8c0.1,0,0.3-0.1,0.3-0.2c0.1-0.1,0-0.3,0-0.4L32.1,60.3z"/>
<path class="st0" d="M135.8,52h-0.7c-0.2,0-0.4,0.2-0.4,0.4v16.1c0,0.2,0.2,0.4,0.4,0.4h0.7c0.2,0,0.4-0.2,0.4-0.4V52.4
	C136.2,52.2,136,52,135.8,52"/>
<path class="st0" d="M139.3,60.3l5.8-7.7c0.1-0.1,0.1-0.3,0-0.4c-0.1-0.1-0.2-0.2-0.3-0.2h-0.8c-0.1,0-0.2,0.1-0.3,0.1l-6,7.9
	c-0.1,0.1-0.1,0.3,0,0.4l6,8.2c0.1,0.1,0.2,0.2,0.3,0.2h0.8c0.1,0,0.3-0.1,0.3-0.2c0.1-0.1,0-0.3,0-0.4L139.3,60.3z"/>
<path class="st0" d="M46.2,52h-1c-0.1,0-0.2,0.1-0.3,0.2l-8.3,11.8c-0.1,0.1-0.1,0.2,0,0.3l0.4,0.5l0.1,0.1l0.1,0.2
	c0,0,0.2,0.2,0.3,0l7.6-10.9v14.4c0,0.2,0.2,0.4,0.4,0.4h0.7c0.2,0,0.4-0.2,0.4-0.4V52.4C46.6,52.2,46.4,52,46.2,52"/>
<path class="st0" d="M97.3,67.5L97.3,67.5l0-15.1c0-0.2-0.2-0.4-0.4-0.4h-0.7c-0.2,0-0.4,0.2-0.4,0.4v16.1c0,0.2,0.2,0.4,0.4,0.4
	h4.4c0.2,0,0.4-0.2,0.4-0.4v-0.6c0-0.2-0.1-0.3-0.3-0.4L97.3,67.5L97.3,67.5z"/>
<path class="st0" d="M115,52h-1c-0.1,0-0.2,0.1-0.3,0.2l-11.3,16.1c-0.1,0.1-0.1,0.3,0,0.4c0.1,0.1,0.2,0.2,0.3,0.2h0.8
	c0.1,0,0.2-0.1,0.3-0.2L114,54.1v14.4c0,0.2,0.2,0.4,0.4,0.4h0.7c0.2,0,0.4-0.2,0.4-0.4V52.4C115.4,52.2,115.2,52,115,52"/>
<path class="st0" d="M209.6,69.1H209c-0.2,0-0.3-0.2-0.3-0.5V6.9c0-0.3,0.1-0.5,0.3-0.5h0.6c0.2,0,0.3,0.2,0.3,0.5v61.8
	C209.9,68.9,209.7,69.1,209.6,69.1z"/>
<polygon class="st1" points="326,5.9 322.7,6.3 318.5,16.6 329.6,15.4 330.8,12.4 "/>
<g>
	<path class="st0" d="M325.3,34.1h1.1c0.2,0,0.4-0.1,0.4-0.3c0.6-2.2,0.9-4.5,0.9-6.9c0-3.3-0.6-6.5-1.7-9.5l-1.9,0.2
		c1.1,2.9,1.8,6,1.8,9.3c0,2.3-0.3,4.5-0.9,6.7C324.9,33.9,325,34.1,325.3,34.1z"/>
	<path class="st0" d="M291.9,50.4c-10.3-3.9-17.3-14.3-16.1-26.1C277,12.7,286.4,3.3,298,2c8.4-0.9,16.2,2.4,21.3,8.1l0.8-1.9
		c-5.3-5.5-13-8.8-21.3-8.2c-13,0.9-23.6,11.3-24.8,24.3c-1.2,12.7,6.6,23.9,17.7,27.9c0.3,0.1,0.6-0.1,0.6-0.4v-1.1
		C292.2,50.6,292.1,50.5,291.9,50.4z"/>
</g>
<path class="st1" d="M338.3,52h1.4l3.1-9.5h-1.2l-1.6,5.1c-0.3,1.1-0.6,2-0.9,3.1H339c-0.3-1.1-0.6-2-0.9-3.1l-1.5-5.1h-1.3
	L338.3,52z M328.6,52.2c2,0,3.3-1.2,3.3-2.7c0-1.4-0.9-2.1-2-2.5l-1.4-0.6c-0.7-0.3-1.6-0.7-1.6-1.6c0-0.8,0.7-1.4,1.8-1.4
	c0.8,0,1.6,0.3,2.2,0.9l0.7-0.8c-0.7-0.7-1.7-1.1-2.8-1.1c-1.7,0-3,1.1-3,2.5c0,1.4,1,2.1,1.9,2.5l1.4,0.6c0.9,0.4,1.6,0.7,1.6,1.7
	c0,0.9-0.7,1.5-2,1.5c-1,0-2-0.4-2.7-1.1l-0.7,0.8C326.1,51.7,327.3,52.2,328.6,52.2 M317.3,52h1.2v-8.5h2.9v-1h-7v1h2.9V52z
	 M307.7,52h5.6v-1h-4.4v-3.5h3.6v-1h-3.6v-3h4.3v-1h-5.5V52z M300.6,52h5.4v-1h-4.2v-8.5h-1.2V52z"/>
<rect x="361.7" y="42.5" class="st1" width="1.2" height="9.5"/>
<path class="st1" d="M351.4,52h1.1v-5.3c0-0.8-0.1-2-0.2-2.8h0.1l0.8,2.2l1.8,4.9h0.9l1.8-4.9l0.7-2.2h0.1c-0.1,0.8-0.2,2-0.2,2.8
	V52h1.1v-9.5h-1.5l-1.8,5.1c-0.2,0.7-0.4,1.3-0.6,2h-0.1c-0.2-0.7-0.4-1.3-0.6-2l-1.8-5.1h-1.5V52z"/>
<g>
	<polygon class="st1" points="347.8,40.2 347.2,39.4 344.6,41.3 345.1,41.9 	"/>
	<path class="st1" d="M346.6,42.5h-1.4L342,52h1.2l0.9-2.9h3.5l0.9,2.9h1.3L346.6,42.5z M344.5,48.2l0.5-1.4
		c0.3-1.1,0.6-2.1,0.9-3.2h0.1c0.3,1.1,0.6,2.2,1,3.2l0.4,1.4H344.5z"/>
</g>
</svg>
