<svg id="Group_109" data-name="Group 109" xmlns="http://www.w3.org/2000/svg" width="34.107" height="34.107" viewBox="0 0 34.107 34.107">
  <path id="Path_918" data-name="Path 918" d="M0,0H34.107V34.107H0Z" fill="none"/>
  <path id="Path_919" data-name="Path 919" d="M17.632,9.106H14.79V14.79H9.106v2.842H14.79v5.684h2.842V17.632h5.684V14.79H17.632ZM16.211,2a14.211,14.211,0,0,0,0,28.422,14.392,14.392,0,0,0,7.725-2.283A14.211,14.211,0,0,0,16.211,2Zm0,25.58A11.369,11.369,0,1,1,27.58,16.211,11.384,11.384,0,0,1,16.211,27.58Z" transform="translate(0.842 0.842)" fill="#be9f57"/>
</svg>
